<?xml version="1.0" encoding="utf-8"?>
<!-- Generator: Adobe Illustrator 25.4.8, SVG Export Plug-In . SVG Version: 6.00 Build 0)  -->
<svg version="1.1" id="Layer_1" xmlns="http://www.w3.org/2000/svg" xmlns:xlink="http://www.w3.org/1999/xlink" x="0px" y="0px"
	 viewBox="0 0 1348.2 291.8" style="enable-background:new 0 0 1348.2 291.8;" xml:space="preserve">
<style type="text/css">
	.st0{fill:#184468;}
	.st1{fill:#FFFFFF;}
	.st2{fill:#2790CF;}
	.st3{fill:#3F7E3D;}
	.st4{fill:#A31D3E;}
	.st5{fill:#D51B61;}
	.st6{fill:#F29C1F;}
	.st7{fill:#61AE45;}
	.st8{fill:#046598;}
	.st9{fill:#F5C215;}
	.st10{fill:#E86224;}
	.st11{fill:#C6952C;}
	.st12{fill:#489845;}
	.st13{fill:#E3B622;}
	.st14{fill:#DC1E32;}
	.st15{fill:#C02126;}
	.st16{fill:#E23826;}
	.st17{fill:#FBD008;}
	.st18{fill:#39B7E1;}
</style>
<g>
	<g>
		<path class="st0" d="M197.7,238.7l-10.4-17.9l2.2-3.9h19.3l-8.1,3.1L197.7,238.7L197.7,238.7z M91.2,146.3l6.9-6.9l7.6,13.2
			l-4.2,7.3l-2.1-3.6H74.7l1-14.2L91.2,146.3L91.2,146.3z M165.9,186l-13.1-22.7l6.1-10.6h12.7l6.8,11.8l0.3,7.6l5.9,3.2l3.3,5.7
			h-19.1L165.9,186L165.9,186z M187,86.2l20,10.8l-3.1,5.3h-8l-2.2,3.8h-6.8l-5.9-10.3h0.5L187,86.2L187,86.2z M120.1,192.3
			l-2.1-3.7h7.9l2,3.5h-6.6l-8.3,14.4l-0.8-0.6L120.1,192.3L120.1,192.3z M282.8,198.7L264,166.2l21.7-13.5l-1.4-41.5l-3.6,2.3
			l4.2-7.2h-41.5l-9.4-16.3l16.6-10.2l-36.5-19.8l-1.1-41.5l-35.4,21.7l0.5,19.8h-17.3L140,24l-4.5,7.8L99.4,41.9L91.8,72l-22.1-5.9
			l8.5,31.8l-0.5,0.8L79,101l1.4,5.2L62,124.6L42,111L4.6,129.1l34.3,23.3l-3,41.4l1.7-0.8L55,223.2l-12.9,22.3h41.5l7.3-12.7
			l14.7,12.2l3.9-1.4l11.8,20.5h7.9l14.3,24.8l14.3-24.8h5l6.5-11.2h26l-1.3,8.1l32.1,26.3l6.7-41l38.8-14.6l-32.1-26.3l-2.8,1
			l4.4-7.6H282.8L282.8,198.7z"/>
		<g>
			<path class="st1" d="M143.6,291.8l-15.2-26.3h-7.9l-11.6-20.1l-3.5,1.3l-14-11.6L84.5,247h-45l13.7-23.8L37,195l-2.8,1.3
				l3.2-43.1L1.6,128.9l40.5-19.6l19.7,13.4l17-17l-1.1-4.2L76,98.7l0.6-1.1l-9-33.7l23.1,6.2l7.5-29.4l36.3-10.3L140,21l21.6,37.5
				h14.9l-0.5-19.1l38.3-23.5l1.2,43.2l38,20.6l-17.5,10.8l8.2,14.3h43.2l-2.4,4.2l0.8-0.5l1.5,45L266,166.7l19.4,33.6h-43.2l-2,3.5
				l0.5,0.4l34.1,28l-40.5,15.3l-7,42.7l-34.8-28.5l1.2-7.2h-23.4l-6.5,11.2h-5L143.6,291.8z M122.2,262.5h7.9l13.4,23.3l13.4-23.3
				h5l6.5-11.2h28.7l-1.5,9l29.4,24.1l6.5-39.3l37.2-14L239.4,207l-5.9,2.2l6.9-12h39.8L262,165.6l22.2-13.8l-1.3-38l-6.5,4.1
				l5.9-10.2h-39.8l-10.6-18.3l15.6-9.6l-35-19L211.4,21L179,41l0.5,20.5h-19.7L140,27l-3.5,6.1l-35.8,10.1l-7.8,30.7l-21.1-5.6
				l8,29.9l-0.4,0.6l1,1.7l1.7,6.2l-19.9,19.9l-20.3-13.8L7.6,129.3l32.9,22.4l-2.9,39.7l0.6-0.3l18.5,32.1l-12,20.8h38l7.8-13.5
				l15.4,12.8l4.2-1.6L122.2,262.5z M198.5,243.1l-12.9-22.3l3.1-5.4h28.4l-15,5.7L198.5,243.1z M189.1,220.8l7.8,13.6l2.5-15.5
				l1.2-0.5h-10.2L189.1,220.8z M113.5,208.7l-3.2-2.4l8-13.9l-3-5.2h11.4l3.8,6.5h-8.3L113.5,208.7z M120.9,190.6h4.5l-0.3-0.5
				h-4.5L120.9,190.6z M165.9,189l-14.8-25.7l7-12.1h14.4l7.5,12.9l0.2,7.1l5.5,3l4.8,8.3h-20.8L165.9,189z M154.5,163.2l11.4,19.7
				l2.1-3.6h17.4l-1.8-3.1l-6.3-3.4l-0.3-8l-6.2-10.8h-11L154.5,163.2z M101.5,163l-2.9-5.1H73.1l1.3-17.6l16.4,4.4l7.7-7.7l9,15.7
				L101.5,163z M76.3,154.8h24l1.2,2.1l2.5-4.3l-6.2-10.8l-6.1,6.1l-14.5-3.9L76.3,154.8z M194.6,107.7H186l-7.7-13.3h2.3l5.9-10.2
				l22.6,12.3l-4.3,7.4h-8L194.6,107.7z M187.7,104.7h5.1l2.2-3.8h8l1.9-3.2l-17.3-9.4l-4.7,8.1L187.7,104.7z"/>
		</g>
		<polygon class="st2" points="254.5,152.5 233.8,188.4 192.3,188.4 213,152.5 254.5,152.5 		"/>
		<path class="st1" d="M234.7,189.9h-45l22.5-39h45L234.7,189.9z M194.9,186.9h38l19-33h-38L194.9,186.9z"/>
		<polygon class="st2" points="254.5,152.5 213,152.5 192.3,116.5 233.8,116.5 254.5,152.5 		"/>
		<path class="st1" d="M257.1,154h-45l-22.5-39h45L257.1,154z M213.9,151h38l-19-33h-38L213.9,151z"/>
		<polygon class="st2" points="38.9,152.5 35.9,193.9 1.6,170.5 4.6,129.1 38.9,152.5 		"/>
		<g>
			<path class="st1" d="M37.2,196.6L0,171.3l3.3-44.9l37.2,25.3L37.2,196.6z M3.1,169.8l31.5,21.4l2.8-38L5.9,131.8L3.1,169.8z"/>
		</g>
		<polygon class="st3" points="62.9,209.5 42.1,245.5 21.4,209.5 42.1,173.6 62.9,209.5 		"/>
		<path class="st1" d="M42.1,248.5l-22.5-39l22.5-39l22.5,39L42.1,248.5z M23.1,209.5l19,33l19-33l-19-33L23.1,209.5z"/>
		<polygon class="st4" points="271.7,231.6 265,272.6 226.1,287.2 232.9,246.3 271.7,231.6 		"/>
		<polygon class="st5" points="205.9,252.8 185.1,288.8 143.6,288.8 164.3,252.8 205.9,252.8 		"/>
		<g>
			<path class="st1" d="M186,290.3h-45l22.5-39h45L186,290.3z M146.2,287.3h38l19-33h-38L146.2,287.3z"/>
		</g>
		<polygon class="st6" points="105.7,245 98.7,285.9 66.8,259.4 73.7,218.5 105.7,245 		"/>
		<g>
			<path class="st1" d="M99.8,288.7L65.1,260l7.6-44.4l34.6,28.7L99.8,288.7z M68.4,258.8l29.3,24.3l6.4-37.5l-29.3-24.3L68.4,258.8
				z"/>
		</g>
		<polygon class="st6" points="144.6,230.6 137.6,271.5 98.7,285.9 105.7,245 144.6,230.6 		"/>
		<g>
			<path class="st1" d="M96.8,288.2l7.6-44.4l42.2-15.6l-7.6,44.3L96.8,288.2z M107,246.1l-6.4,37.5l35.7-13.2l6.4-37.5L107,246.1z"
				/>
		</g>
		<polygon class="st7" points="80.4,106.2 51.1,135.5 40.3,95.4 69.7,66.1 80.4,106.2 		"/>
		<path class="st1" d="M50.3,138.4L38.7,95l31.8-31.8l11.6,43.5L50.3,138.4z M42,95.9l9.8,36.8l26.9-26.9L68.9,69L42,95.9z"/>
		<polygon class="st8" points="105.7,152.6 85,188.6 64.2,152.6 85,116.7 105.7,152.6 		"/>
		<path class="st1" d="M85,191.6l-22.5-39l22.5-39l22.5,39L85,191.6z M65.9,152.6l19,33l19-33l-19-33L65.9,152.6z"/>
		<polygon class="st9" points="282.8,198.7 262,234.7 220.5,234.7 241.3,198.7 282.8,198.7 		"/>
		<path class="st1" d="M262.9,236.2h-45l22.5-39h45L262.9,236.2z M223.1,233.2h38l19-33h-38L223.1,233.2z"/>
		<polygon class="st10" points="231.1,216.9 210.4,252.8 168.8,252.8 189.6,216.9 231.1,216.9 		"/>
		<path class="st1" d="M211.2,254.3h-45l22.5-39h45L211.2,254.3z M171.4,251.3h38.1l19-33h-38L171.4,251.3z"/>
		<polygon class="st11" points="131.9,198.9 111.1,234.8 90.4,198.9 111.1,162.9 131.9,198.9 		"/>
		<path class="st1" d="M111.1,237.9l-22.5-39l22.5-39l22.5,39L111.1,237.9z M92.1,198.9l19,33l19-33l-19-33L92.1,198.9z"/>
		<polygon class="st11" points="173.4,198.9 152.6,234.8 111.1,234.8 131.9,198.9 173.4,198.9 		"/>
		<path class="st1" d="M153.5,236.3h-45l22.5-39h45L153.5,236.3z M113.7,233.3h38l19-33h-38L113.7,233.3z"/>
		<polygon class="st12" points="250.4,79.7 213.9,59.9 212.8,18.4 249.3,38.2 250.4,79.7 		"/>
		<path class="st1" d="M252,82.3l-39.5-21.4l-1.2-45l39.5,21.5L252,82.3z M215.4,59l33.4,18.1l-1-38L214.4,21L215.4,59z"/>
		<polygon class="st13" points="202.2,59.9 160.7,59.9 140,24 181.5,24 202.2,59.9 		"/>
		<path class="st1" d="M204.8,61.4h-45l-22.5-39h45L204.8,61.4z M161.6,58.4h38l-19-33h-38L161.6,58.4z"/>
		<polygon class="st14" points="99.4,41.9 89.2,82.2 59.5,53.2 69.6,13 99.4,41.9 		"/>
		<path class="st1" d="M90,85.1L57.8,53.7l11-43.6l32.2,31.4L90,85.1z M61.1,52.8l27.3,26.5l9.3-36.9L70.5,15.9L61.1,52.8z"/>
		<polygon class="st14" points="139.3,30.6 99.4,41.9 69.6,13 109.6,1.7 139.3,30.6 		"/>
		<g>
			<path class="st1" d="M99,43.6L66.7,12.2L110,0l32.2,31.4L99,43.6z M72.5,13.7l27.3,26.5l36.6-10.4L109.2,3.4L72.5,13.7z"/>
		</g>
		<polygon class="st15" points="284.8,106.2 243.3,106.2 222.5,70.2 264,70.2 284.8,106.2 		"/>
		<path class="st1" d="M287.4,107.7h-45l-22.5-39h45L287.4,107.7z M244.1,104.7h38l-19-33h-38.1L244.1,104.7z"/>
		<polygon class="st16" points="228.4,106.2 186.9,106.2 166.1,70.2 207.6,70.2 228.4,106.2 		"/>
		<path class="st1" d="M231,107.7h-45l-22.5-39h45L231,107.7z M187.7,104.7h38l-19-33h-38.1L187.7,104.7z"/>
		<polygon class="st17" points="129.6,94.3 108.8,130.3 88.1,94.3 108.8,58.3 129.6,94.3 		"/>
		<path class="st1" d="M108.8,133.3l-22.5-39l22.5-39l22.5,39L108.8,133.3z M89.8,94.3l19,33l19-33l-19-33L89.8,94.3z"/>
		<polygon class="st17" points="171.1,94.3 129.6,94.3 108.8,58.3 150.3,58.3 171.1,94.3 		"/>
		<path class="st1" d="M173.7,95.8h-45l-22.5-39h45L173.7,95.8z M130.5,92.8h38l-19-33h-38L130.5,92.8z"/>
		<polyline class="st18" points="322.3,172.1 287.1,194.1 250.5,174.6 285.7,152.6 322.3,172.1 		"/>
		<path class="st1" d="M287.1,195.9l-39.7-21.2l38.2-23.8l39.7,21.2L287.1,195.9z M253.4,174.5l33.6,17.9l32.3-20.1l-33.6-17.9
			L253.4,174.5z"/>
		<polyline class="st18" points="322.3,172.1 285.7,152.6 284.3,111.1 320.9,130.6 322.3,172.1 		"/>
		<path class="st1" d="M323.9,174.7l-39.7-21.2l-1.5-45l39.7,21.2L323.9,174.7z M287.1,151.7l33.6,17.9l-1.3-38l-33.6-17.9
			L287.1,151.7z"/>
		<polygon class="st7" points="160.7,156.3 140,192.3 119.2,156.3 140,120.4 160.7,156.3 		"/>
		<path class="st1" d="M140,195.3l-22.5-39l22.5-39l22.5,39L140,195.3z M120.9,156.3l19,33l19-33l-19-33L120.9,156.3z"/>
		<polygon class="st7" points="202.2,156.3 181.5,192.3 140,192.3 160.7,156.3 202.2,156.3 		"/>
		<path class="st1" d="M182.3,193.8h-45l22.5-39h45L182.3,193.8z M142.6,190.8h38l19-33h-38L142.6,190.8z"/>
		<polygon class="st7" points="202.2,156.3 160.7,156.3 140,120.4 181.5,120.4 202.2,156.3 		"/>
		<path class="st1" d="M204.8,157.8h-45l-22.5-39h45L204.8,157.8z M161.6,154.8h38l-19-33h-38L161.6,154.8z"/>
		<g>
			<path class="st1" d="M223.6,289.4l7.6-44.4l42.2-15.6l-7.6,44.3L223.6,289.4z M233.8,247.3l-6.4,37.5l35.7-13.2l6.4-37.5
				L233.8,247.3z"/>
		</g>
	</g>
	<polygon class="st2" points="376.4,255.7 376.4,36.1 381.2,36.1 381.2,255.7 376.4,255.7 	"/>
	<g>
		<path d="M441.6,47.7v44.4h7.8c6.7,0,9.8-3.6,9.8-10.1V57.5c0-6.5-3.1-9.8-9.8-9.8H441.6L441.6,47.7z M429.3,37.1h21.5
			c14.8,0,20.5,7.7,20.5,20.9v23.2c0,13-5.7,21.2-20.5,21.2h-9.2v35.1h-12.3V37.1L429.3,37.1z"/>
		<path d="M441.6,47.7v44.4h7.8c6.7,0,9.8-3.6,9.8-10.1V57.5c0-6.5-3.1-9.8-9.8-9.8H441.6L441.6,47.7z M429.3,37.1h21.5
			c14.8,0,20.5,7.7,20.5,20.9v23.2c0,13-5.7,21.2-20.5,21.2h-9.2v35.1h-12.3V37.1L429.3,37.1z"/>
		<path d="M486.8,105.7h16l-7.9-47.2h-0.1L486.8,105.7L486.8,105.7z M469.8,137.4l18.3-100.3h14.4l18.4,100.3h-12.6l-3.6-21H485
			l-3.5,21H469.8L469.8,137.4z"/>
		<path d="M486.8,105.7h16l-7.9-47.2h-0.1L486.8,105.7L486.8,105.7z M469.8,137.4l18.3-100.3h14.4l18.4,100.3h-12.6l-3.6-21H485
			l-3.5,21H469.8L469.8,137.4z"/>
		<path d="M538,47.7v34.9h7.4c6.7,0,9.8-3.6,9.8-9.9V57.5c0-6.5-3.1-9.8-9.8-9.8H538L538,47.7z M538,89.2v48.2h-12.3V37.1h21.1
			c14.8,0,20.6,7.7,20.6,20.9v13.8c0,11.5-4.6,18.2-15.8,19.7l18.5,46h-13.1L538,89.2L538,89.2z"/>
		<path d="M538,47.7v34.9h7.4c6.7,0,9.8-3.6,9.8-9.9V57.5c0-6.5-3.1-9.8-9.8-9.8H538L538,47.7z M538,89.2v48.2h-12.3V37.1h21.1
			c14.8,0,20.6,7.7,20.6,20.9v13.8c0,11.5-4.6,18.2-15.8,19.7l18.5,46h-13.1L538,89.2L538,89.2z"/>
		<polygon points="570.4,37.1 611.1,37.1 611.1,47.7 597,47.7 597,137.4 584.6,137.4 584.6,47.7 570.4,47.7 570.4,37.1 		"/>
		<polygon points="570.4,37.1 611.1,37.1 611.1,47.7 597,47.7 597,137.4 584.6,137.4 584.6,47.7 570.4,47.7 570.4,37.1 		"/>
		<polygon points="627.1,65.9 627.1,137.4 616.7,137.4 616.7,37.1 628.9,37.1 649.6,104.1 649.6,37.1 660,37.1 660,137.4 649,137.4 
			627.1,65.9 		"/>
		<polygon points="627.1,65.9 627.1,137.4 616.7,137.4 616.7,37.1 628.9,37.1 649.6,104.1 649.6,37.1 660,37.1 660,137.4 649,137.4 
			627.1,65.9 		"/>
		<polygon points="667.4,37.1 703.8,37.1 703.8,47.7 679.7,47.7 679.7,81.2 697.1,81.2 697.1,91.7 679.7,91.7 679.7,126.8 
			703.8,126.8 703.8,137.4 667.4,137.4 667.4,37.1 		"/>
		<polygon points="667.4,37.1 703.8,37.1 703.8,47.7 679.7,47.7 679.7,81.2 697.1,81.2 697.1,91.7 679.7,91.7 679.7,126.8 
			703.8,126.8 703.8,137.4 667.4,137.4 667.4,37.1 		"/>
		<path d="M722.9,47.7v34.9h7.4c6.7,0,9.8-3.6,9.8-9.9V57.5c0-6.5-3.1-9.8-9.8-9.8H722.9L722.9,47.7z M722.9,89.2v48.2h-12.3V37.1
			h21.1c14.8,0,20.6,7.7,20.6,20.9v13.8c0,11.5-4.6,18.2-15.8,19.7l18.5,46H742L722.9,89.2L722.9,89.2z"/>
		<path d="M722.9,47.7v34.9h7.4c6.7,0,9.8-3.6,9.8-9.9V57.5c0-6.5-3.1-9.8-9.8-9.8H722.9L722.9,47.7z M722.9,89.2v48.2h-12.3V37.1
			h21.1c14.8,0,20.6,7.7,20.6,20.9v13.8c0,11.5-4.6,18.2-15.8,19.7l18.5,46H742L722.9,89.2L722.9,89.2z"/>
		<path d="M757.8,116.7v-14.4h11.6V117c0,6.8,3.1,10.9,10,10.9c6.6,0,9.5-4.6,9.5-10.9v-4.6c0-6.7-2.4-10.4-8.2-16.3l-9.5-9.9
			c-8.9-9.3-13.1-14.9-13.1-25.9v-3.6c0-12.1,7-20.7,20.9-20.7c14.6,0,20.9,7.5,20.9,21.3v9.5h-11.3v-9.9c0-7.1-3.2-10.4-9.5-10.4
			c-5.7,0-9.5,3.4-9.5,10.1v2.8c0,6.4,3.3,10.1,8.8,15.7l9.9,10.4c8.5,9.2,12.7,14.6,12.7,25.6v5.2c0,12.7-6.7,22.2-21.8,22.2
			C764.2,138.4,757.8,129.4,757.8,116.7L757.8,116.7z"/>
		<path d="M757.8,116.7v-14.4h11.6V117c0,6.8,3.1,10.9,10,10.9c6.6,0,9.5-4.6,9.5-10.9v-4.6c0-6.7-2.4-10.4-8.2-16.3l-9.5-9.9
			c-8.9-9.3-13.1-14.9-13.1-25.9v-3.6c0-12.1,7-20.7,20.9-20.7c14.6,0,20.9,7.5,20.9,21.3v9.5h-11.3v-9.9c0-7.1-3.2-10.4-9.5-10.4
			c-5.7,0-9.5,3.4-9.5,10.1v2.8c0,6.4,3.3,10.1,8.8,15.7l9.9,10.4c8.5,9.2,12.7,14.6,12.7,25.6v5.2c0,12.7-6.7,22.2-21.8,22.2
			C764.2,138.4,757.8,129.4,757.8,116.7L757.8,116.7z"/>
		<polygon points="839.7,91.7 820,91.7 820,137.4 807.7,137.4 807.7,37.1 820,37.1 820,81 839.7,81 839.7,37.1 852.1,37.1 
			852.1,137.4 839.7,137.4 839.7,91.7 		"/>
		<polygon points="839.7,91.7 820,91.7 820,137.4 807.7,137.4 807.7,37.1 820,37.1 820,81 839.7,81 839.7,37.1 852.1,37.1 
			852.1,137.4 839.7,137.4 839.7,91.7 		"/>
		<polygon points="859.6,37.1 871.9,37.1 871.9,137.4 859.6,137.4 859.6,37.1 		"/>
		<polygon points="859.6,37.1 871.9,37.1 871.9,137.4 859.6,137.4 859.6,37.1 		"/>
		<path d="M891.7,47.7v44.4h7.8c6.7,0,9.8-3.6,9.8-10.1V57.5c0-6.5-3.1-9.8-9.8-9.8H891.7L891.7,47.7z M879.4,37.1h21.5
			c14.8,0,20.5,7.7,20.5,20.9v23.2c0,13-5.7,21.2-20.5,21.2h-9.2v35.1h-12.3V37.1L879.4,37.1z"/>
		<g>
			<path d="M891.7,47.7v44.4h7.8c6.7,0,9.8-3.6,9.8-10.1V57.5c0-6.5-3.1-9.8-9.8-9.8H891.7L891.7,47.7z M879.4,37.1h21.5
				c14.8,0,20.5,7.7,20.5,20.9v23.2c0,13-5.7,21.2-20.5,21.2h-9.2v35.1h-12.3V37.1L879.4,37.1z"/>
		</g>
		<path d="M445.6,224.4H461l-7.6-45.2h-0.1L445.6,224.4L445.6,224.4z M429.3,254.7l17.5-96h13.8l17.6,96h-12l-3.5-20.1h-18.8
			l-3.3,20.1H429.3L429.3,254.7z"/>
		<path d="M445.6,224.4H461l-7.6-45.2h-0.1L445.6,224.4L445.6,224.4z M429.3,254.7l17.5-96h13.8l17.6,96h-12l-3.5-20.1h-18.8
			l-3.3,20.1H429.3L429.3,254.7z"/>
		<path d="M480.7,230.8v-48.1c0-14.2,6.3-24.9,21.6-24.9c16,0,20.3,9.3,20.3,23.1v11.3h-10.9V180c0-7.5-1.9-11.9-9.2-11.9
			c-7.2,0-10,5.5-10,12.7v51.8c0,7.2,2.8,12.7,10,12.7c7.3,0,9.3-4.8,9.3-11.9v-17.3h10.8v16.4c0,13.2-4.8,23.1-20.3,23.1
			C487,255.7,480.7,244.8,480.7,230.8L480.7,230.8z"/>
		<path d="M480.7,230.8v-48.1c0-14.2,6.3-24.9,21.6-24.9c16,0,20.3,9.3,20.3,23.1v11.3h-10.9V180c0-7.5-1.9-11.9-9.2-11.9
			c-7.2,0-10,5.5-10,12.7v51.8c0,7.2,2.8,12.7,10,12.7c7.3,0,9.3-4.8,9.3-11.9v-17.3h10.8v16.4c0,13.2-4.8,23.1-20.3,23.1
			C487,255.7,480.7,244.8,480.7,230.8L480.7,230.8z"/>
		<path d="M529.3,230.8v-48.1c0-14.2,6.3-24.9,21.6-24.9c16,0,20.3,9.3,20.3,23.1v11.3h-10.9V180c0-7.5-1.9-11.9-9.2-11.9
			c-7.2,0-10,5.5-10,12.7v51.8c0,7.2,2.8,12.7,10,12.7c7.3,0,9.3-4.8,9.3-11.9v-17.3h10.8v16.4c0,13.2-4.8,23.1-20.3,23.1
			C535.6,255.7,529.3,244.8,529.3,230.8L529.3,230.8z"/>
		<path d="M529.3,230.8v-48.1c0-14.2,6.3-24.9,21.6-24.9c16,0,20.3,9.3,20.3,23.1v11.3h-10.9V180c0-7.5-1.9-11.9-9.2-11.9
			c-7.2,0-10,5.5-10,12.7v51.8c0,7.2,2.8,12.7,10,12.7c7.3,0,9.3-4.8,9.3-11.9v-17.3h10.8v16.4c0,13.2-4.8,23.1-20.3,23.1
			C535.6,255.7,529.3,244.8,529.3,230.8L529.3,230.8z"/>
		<polygon points="578.1,158.7 612.9,158.7 612.9,168.9 589.8,168.9 589.8,200.9 606.5,200.9 606.5,211 589.8,211 589.8,244.6 
			612.9,244.6 612.9,254.7 578.1,254.7 578.1,158.7 		"/>
		<polygon points="578.1,158.7 612.9,158.7 612.9,168.9 589.8,168.9 589.8,200.9 606.5,200.9 606.5,211 589.8,211 589.8,244.6 
			612.9,244.6 612.9,254.7 578.1,254.7 578.1,158.7 		"/>
		<polygon points="619.4,158.7 631.2,158.7 631.2,244.6 651.4,244.6 651.4,254.7 619.4,254.7 619.4,158.7 		"/>
		<polygon points="619.4,158.7 631.2,158.7 631.2,244.6 651.4,244.6 651.4,254.7 619.4,254.7 619.4,158.7 		"/>
		<polygon points="656.6,158.7 691.4,158.7 691.4,168.9 668.3,168.9 668.3,200.9 685,200.9 685,211 668.3,211 668.3,244.6 
			691.4,244.6 691.4,254.7 656.6,254.7 656.6,158.7 		"/>
		<polygon points="656.6,158.7 691.4,158.7 691.4,168.9 668.3,168.9 668.3,200.9 685,200.9 685,211 668.3,211 668.3,244.6 
			691.4,244.6 691.4,254.7 656.6,254.7 656.6,158.7 		"/>
		<path d="M709.7,168.9v33.4h7.1c6.4,0,9.3-3.4,9.3-9.5v-14.6c0-6.2-2.9-9.3-9.3-9.3H709.7L709.7,168.9z M709.7,208.6v46.2h-11.7
			v-96h20.2c14.2,0,19.8,7.4,19.8,20v13.2c0,11-4.4,17.4-15.1,18.8l17.8,44H728L709.7,208.6L709.7,208.6z"/>
		<path d="M709.7,168.9v33.4h7.1c6.4,0,9.3-3.4,9.3-9.5v-14.6c0-6.2-2.9-9.3-9.3-9.3H709.7L709.7,168.9z M709.7,208.6v46.2h-11.7
			v-96h20.2c14.2,0,19.8,7.4,19.8,20v13.2c0,11-4.4,17.4-15.1,18.8l17.8,44H728L709.7,208.6L709.7,208.6z"/>
		<path d="M758.4,224.4h15.4l-7.6-45.2H766L758.4,224.4L758.4,224.4z M742.1,254.7l17.5-96h13.7l17.6,96h-12l-3.5-20.1h-18.8
			l-3.3,20.1H742.1L742.1,254.7z"/>
		<path d="M758.4,224.4h15.4l-7.6-45.2H766L758.4,224.4L758.4,224.4z M742.1,254.7l17.5-96h13.7l17.6,96h-12l-3.5-20.1h-18.8
			l-3.3,20.1H742.1L742.1,254.7z"/>
		<polygon points="786.3,158.7 825.3,158.7 825.3,168.9 811.8,168.9 811.8,254.7 799.9,254.7 799.9,168.9 786.3,168.9 786.3,158.7 
					"/>
		<polygon points="786.3,158.7 825.3,158.7 825.3,168.9 811.8,168.9 811.8,254.7 799.9,254.7 799.9,168.9 786.3,168.9 786.3,158.7 
					"/>
		<path d="M860,232.7v-51.8c0-7.2-3.1-12.7-10.3-12.7c-7.1,0-10.1,5.5-10.1,12.7v51.8c0,7.2,3.1,12.7,10.1,12.7
			C856.9,245.4,860,239.9,860,232.7L860,232.7z M827.8,230.8v-48.1c0-14.2,6.7-24.9,21.9-24.9c15.5,0,22,10.8,22,24.9v48.1
			c0,14-6.5,24.9-22,24.9C834.5,255.7,827.8,244.8,827.8,230.8L827.8,230.8z"/>
		<path d="M860,232.7v-51.8c0-7.2-3.1-12.7-10.3-12.7c-7.1,0-10.1,5.5-10.1,12.7v51.8c0,7.2,3.1,12.7,10.1,12.7
			C856.9,245.4,860,239.9,860,232.7L860,232.7z M827.8,230.8v-48.1c0-14.2,6.7-24.9,21.9-24.9c15.5,0,22,10.8,22,24.9v48.1
			c0,14-6.5,24.9-22,24.9C834.5,255.7,827.8,244.8,827.8,230.8L827.8,230.8z"/>
		<path d="M890.6,168.9v33.4h7.1c6.4,0,9.3-3.4,9.3-9.5v-14.6c0-6.2-2.9-9.3-9.3-9.3H890.6L890.6,168.9z M890.6,208.6v46.2h-11.7
			v-96H899c14.2,0,19.8,7.4,19.8,20v13.2c0,11-4.4,17.4-15.1,18.8l17.8,44h-12.5L890.6,208.6L890.6,208.6z"/>
		<g>
			<path d="M890.6,168.9v33.4h7.1c6.4,0,9.3-3.4,9.3-9.5v-14.6c0-6.2-2.9-9.3-9.3-9.3H890.6L890.6,168.9z M890.6,208.6v46.2h-11.7
				v-96H899c14.2,0,19.8,7.4,19.8,20v13.2c0,11-4.4,17.4-15.1,18.8l17.8,44h-12.5L890.6,208.6L890.6,208.6z"/>
		</g>
	</g>
	<g>
		<g>
			<path class="st2" d="M987.2,46.3H987l-6.8,35.8H977L970,46.3h-0.1v35.8h-5.3V33.3h7.8l6.3,32.2h0.1l6-32.2h8.5v48.8h-6V46.3z"/>
			<path class="st2" d="M1019.6,33.3v37.3c0,7.2-3.1,12-11.1,12c-8.3,0-11.6-4.8-11.6-12V33.3h6.3v37.9c0,3.6,1.4,6.2,5.3,6.2
				c3.8,0,5.2-2.6,5.2-6.2V33.3H1019.6z"/>
			<path class="st2" d="M1023.4,33.3h6.3v43.6h10.9v5.2h-17.2V33.3z"/>
			<path class="st2" d="M1037.6,33.3h21v5.2h-7.3v43.6h-6.4V38.5h-7.3V33.3z"/>
			<path class="st2" d="M1061.5,33.3h6.3v48.8h-6.3V33.3z"/>
			<path class="st2" d="M1071.1,56.9h10.7v5h-10.7V56.9z"/>
			<path class="st2" d="M1083.1,72v-7h6v7.1c0,3.3,1.6,5.3,5.2,5.3c3.4,0,4.9-2.2,4.9-5.3v-2.2c0-3.2-1.2-5-4.2-7.9l-4.9-4.8
				c-4.6-4.5-6.8-7.3-6.8-12.6v-1.7c0-5.9,3.6-10.1,10.8-10.1c7.6,0,10.8,3.7,10.8,10.4v4.6h-5.8V43c0-3.5-1.7-5-4.9-5
				c-3,0-4.9,1.7-4.9,4.9v1.4c0,3.1,1.7,4.9,4.5,7.6l5.1,5c4.4,4.5,6.5,7.1,6.5,12.4v2.5c0,6.2-3.5,10.8-11.2,10.8
				C1086.4,82.6,1083.1,78.2,1083.1,72z"/>
			<path class="st2" d="M1106.4,33.3h21v5.2h-7.3v43.6h-6.4V38.5h-7.3V33.3z"/>
			<path class="st2" d="M1124.9,82.1l9.4-48.8h7.4l9.5,48.8h-6.5l-1.9-10.2h-10.1l-1.8,10.2H1124.9z M1133.7,66.7h8.3l-4.1-23h-0.1
				L1133.7,66.7z"/>
			<path class="st2" d="M1160.1,58v24.1h-6.3V33.3h6.3v22.2l10.7-22.2h6.3l-11.2,22.6l11.4,26.2h-6.6L1160.1,58z"/>
			<path class="st2" d="M1179.5,33.3h18.8v5.2h-12.4v16.3h9v5.1h-9v17.1h12.4v5.2h-18.8V33.3z"/>
			<path class="st2" d="M1218.3,59.9h-10.1v22.2h-6.3V33.3h6.3v21.4h10.1V33.3h6.4v48.8h-6.4V59.9z"/>
			<path class="st2" d="M1228.5,69.9V45.5c0-7.2,3.6-12.7,11.8-12.7c8.3,0,11.9,5.5,11.9,12.7v24.5c0,7.1-3.5,12.7-11.9,12.7
				C1232.1,82.6,1228.5,77.1,1228.5,69.9z M1245.9,70.9V44.5c0-3.7-1.7-6.5-5.5-6.5c-3.8,0-5.5,2.8-5.5,6.5v26.3
				c0,3.7,1.7,6.5,5.5,6.5C1244.2,77.4,1245.9,74.5,1245.9,70.9z"/>
			<path class="st2" d="M1256,33.3h6.3v43.6h10.9v5.2H1256V33.3z"/>
			<path class="st2" d="M1287.5,33.3c8.6,0,11.6,5.5,11.6,12.7v23.5c0,7.1-3,12.7-11.6,12.7H1276V33.3H1287.5z M1282.4,76.9h4.4
				c4.5,0,6-2.7,6-6.4V44.8c0-3.6-1.6-6.3-6-6.3h-4.4V76.9z"/>
			<path class="st2" d="M1302.9,33.3h18.8v5.2h-12.4v16.3h9v5.1h-9v17.1h12.4v5.2h-18.8V33.3z"/>
			<path class="st2" d="M1331.6,58.6v23.5h-6.3V33.3h10.9c7.6,0,10.7,3.7,10.7,10.1v6.7c0,5.6-2.4,8.9-8.1,9.6l9.6,22.4h-6.8
				L1331.6,58.6z M1331.6,38.5v17h3.8c3.5,0,5-1.7,5-4.8v-7.4c0-3.2-1.6-4.7-5-4.7H1331.6z"/>
		</g>
		<path d="M964.5,92.1h11.6c8,0,11.1,3.7,11.1,10.1v11.3c0,6.3-3.1,10.3-11.1,10.3h-5v17.1h-6.6V92.1z M971.2,97.3v21.6h4.2
			c3.6,0,5.3-1.7,5.3-4.9V102c0-3.2-1.7-4.7-5.3-4.7H971.2z"/>
		<path d="M986.4,140.9l9.9-48.8h7.8l9.9,48.8h-6.8l-2-10.2h-10.6l-1.9,10.2H986.4z M995.5,125.5h8.7l-4.3-23h-0.1L995.5,125.5z"/>
		<path d="M1023.2,117.4v23.5h-6.6V92.1h11.4c8,0,11.1,3.7,11.1,10.1v6.7c0,5.6-2.5,8.9-8.5,9.6l10,22.4h-7.1L1023.2,117.4z
			 M1023.2,97.3v17h4c3.6,0,5.3-1.7,5.3-4.8V102c0-3.2-1.7-4.7-5.3-4.7H1023.2z"/>
		<path d="M1040.6,92.1h22v5.2h-7.6v43.6h-6.7V97.3h-7.7V92.1z"/>
		<path d="M1071.3,106.1v34.8h-5.6V92.1h6.6l11.1,32.6V92.1h5.6v48.8h-5.9L1071.3,106.1z"/>
		<path d="M1093,92.1h19.6v5.2h-13v16.3h9.4v5.1h-9.4v17.1h13v5.2H1093V92.1z"/>
		<path d="M1123,117.4v23.5h-6.6V92.1h11.4c8,0,11.1,3.7,11.1,10.1v6.7c0,5.6-2.5,8.9-8.5,9.6l10,22.4h-7.1L1123,117.4z M1123,97.3
			v17h4c3.6,0,5.3-1.7,5.3-4.8V102c0-3.2-1.7-4.7-5.3-4.7H1123z"/>
		<path d="M1141.8,130.8v-7h6.2v7.1c0,3.3,1.7,5.3,5.4,5.3c3.5,0,5.1-2.2,5.1-5.3v-2.2c0-3.2-1.3-5-4.4-7.9l-5.1-4.8
			c-4.8-4.5-7.1-7.3-7.1-12.6v-1.7c0-5.9,3.8-10.1,11.3-10.1c7.9,0,11.3,3.7,11.3,10.4v4.6h-6.1v-4.8c0-3.5-1.7-5-5.1-5
			c-3.1,0-5.1,1.7-5.1,4.9v1.4c0,3.1,1.8,4.9,4.7,7.6l5.3,5c4.6,4.5,6.8,7.1,6.8,12.4v2.5c0,6.2-3.6,10.8-11.7,10.8
			C1145.3,141.4,1141.8,137,1141.8,130.8z"/>
		<path d="M1186,118.7h-10.6v22.2h-6.6V92.1h6.6v21.4h10.6V92.1h6.7v48.8h-6.7V118.7z"/>
		<path d="M1196.7,92.1h6.6v48.8h-6.6V92.1z"/>
		<path d="M1207.4,92.1h11.6c8,0,11.1,3.7,11.1,10.1v11.3c0,6.3-3.1,10.3-11.1,10.3h-5v17.1h-6.6V92.1z M1214.1,97.3v21.6h4.2
			c3.6,0,5.3-1.7,5.3-4.9V102c0-3.2-1.7-4.7-5.3-4.7H1214.1z"/>
		<path d="M1233.2,130.8v-7h6.2v7.1c0,3.3,1.7,5.3,5.4,5.3c3.5,0,5.1-2.2,5.1-5.3v-2.2c0-3.2-1.3-5-4.4-7.9l-5.1-4.8
			c-4.8-4.5-7.1-7.3-7.1-12.6v-1.7c0-5.9,3.8-10.1,11.3-10.1c7.9,0,11.3,3.7,11.3,10.4v4.6h-6.1v-4.8c0-3.5-1.7-5-5.1-5
			c-3.1,0-5.1,1.7-5.1,4.9v1.4c0,3.1,1.8,4.9,4.7,7.6l5.3,5c4.6,4.5,6.8,7.1,6.8,12.4v2.5c0,6.2-3.6,10.8-11.7,10.8
			C1236.6,141.4,1233.2,137,1233.2,130.8z"/>
		<path class="st2" d="M1266.5,140.9l9.9-48.8h7.8l9.9,48.8h-6.8l-2-10.2h-10.6l-1.9,10.2H1266.5z M1275.6,125.5h8.7l-4.3-23h-0.1
			L1275.6,125.5z"/>
		<path class="st2" d="M1302.3,106.1v34.8h-5.6V92.1h6.6l11.1,32.6V92.1h5.6v48.8h-5.9L1302.3,106.1z"/>
		<path class="st2" d="M1336.1,92.1c9,0,12.1,5.5,12.1,12.7v23.5c0,7.1-3.2,12.7-12.1,12.7h-12V92.1H1336.1z M1330.7,135.7h4.6
			c4.7,0,6.3-2.7,6.3-6.4v-25.7c0-3.6-1.7-6.3-6.3-6.3h-4.6V135.7z"/>
		<g>
			<path d="M964.5,150.9h21.7v5.2h-14.4v16.3h10.4v5.1h-10.4v17.1h14.4v5.2h-21.7V150.9z"/>
			<path d="M996.5,164.9v34.8h-6.2v-48.8h7.3l12.3,32.6v-32.6h6.2v48.8h-6.6L996.5,164.9z"/>
			<path d="M1034.2,174.2h12.6v25.5h-5.6v-4.8c-1.2,3.1-3.7,5.3-9,5.3c-8.3,0-12-5.5-12-12.7v-24.5c0-7.2,4.1-12.7,13.5-12.7
				c10,0,12.9,4.7,12.9,11.7v4.3h-6.8v-4.7c0-3.8-1.4-6-6-6c-4.5,0-6.4,2.8-6.4,6.5v26.3c0,3.7,1.7,6.5,6.1,6.5
				c4.2,0,6.1-2.3,6.1-6.1v-9.6h-5.6V174.2z"/>
			<path d="M1049.9,199.7l10.9-48.8h8.5l11,48.8h-7.5l-2.2-10.2H1059l-2.1,10.2H1049.9z M1060.1,184.3h9.5l-4.7-23h-0.1
				L1060.1,184.3z"/>
			<path d="M1095.7,174.2h12.6v25.5h-5.6v-4.8c-1.2,3.1-3.7,5.3-9,5.3c-8.3,0-12-5.5-12-12.7v-24.5c0-7.2,4.1-12.7,13.5-12.7
				c10,0,12.9,4.7,12.9,11.7v4.3h-6.8v-4.7c0-3.8-1.4-6-6-6c-4.5,0-6.4,2.8-6.4,6.5v26.3c0,3.7,1.7,6.5,6.1,6.5
				c4.2,0,6.1-2.3,6.1-6.1v-9.6h-5.6V174.2z"/>
			<path d="M1113,150.9h21.7v5.2h-14.4v16.3h10.4v5.1h-10.4v17.1h14.4v5.2H1113V150.9z"/>
			<path d="M1164.9,163.9h-0.2l-7.8,35.8h-3.7l-8.1-35.8h-0.2v35.8h-6.1v-48.8h9l7.3,32.2h0.1l6.9-32.2h9.8v48.8h-6.9V163.9z"/>
			<path d="M1176.2,150.9h21.7v5.2h-14.4v16.3h10.4v5.1h-10.4v17.1h14.4v5.2h-21.7V150.9z"/>
			<path d="M1208.1,164.9v34.8h-6.2v-48.8h7.3l12.3,32.6v-32.6h6.2v48.8h-6.6L1208.1,164.9z"/>
			<path d="M1230.8,150.9h24.2v5.2h-8.4v43.6h-7.4v-43.6h-8.5V150.9z"/>
			<path class="st2" d="M1266.9,150.9h21.2v5.2h-13.9v16.3h10.4v5.1h-10.4v22.2h-7.3V150.9z"/>
			<path class="st2" d="M1290,187.5v-24.5c0-7.2,4.2-12.7,13.6-12.7c9.6,0,13.7,5.5,13.7,12.7v24.5c0,7.1-4.1,12.7-13.7,12.7
				C1294.2,200.2,1290,194.7,1290,187.5z M1310,188.5v-26.3c0-3.7-1.9-6.5-6.4-6.5c-4.4,0-6.3,2.8-6.3,6.5v26.3
				c0,3.7,1.9,6.5,6.3,6.5C1308.1,194.9,1310,192.1,1310,188.5z"/>
			<path class="st2" d="M1329,176.2v23.5h-7.3v-48.8h12.5c8.8,0,12.3,3.7,12.3,10.1v6.7c0,5.6-2.7,8.9-9.4,9.6l11,22.4h-7.8
				L1329,176.2z M1329,156.1v17h4.4c4,0,5.8-1.7,5.8-4.8v-7.4c0-3.2-1.8-4.7-5.8-4.7H1329z"/>
		</g>
		<g>
			<path class="st2" d="M964.5,209.7H988v5.2h-8.1v43.6h-7.1v-43.6h-8.2V209.7z"/>
			<path class="st2" d="M1009.6,236.2h-11.3v22.2h-7.1v-48.8h7.1v21.4h11.3v-21.4h7.1v48.8h-7.1V236.2z"/>
			<path class="st2" d="M1021,209.7h21v5.2h-13.9v16.3h10v5.1h-10v17.1h13.9v5.2h-21V209.7z"/>
			<path class="st2" d="M1053.9,250c0-5,1.9-8,6.7-12.6l5.5-5.3c3.1-3,4.1-5.1,4.1-8.9v-4.2c0-3.7-2-4.7-4.7-4.7
				c-2.8,0-4.8,1.3-4.8,5v5.9h-6.6v-5.8c0-6.7,4.1-10.3,11.6-10.3c7.6,0,11.4,3.2,11.4,9.9v4.7c0,4.5-1.4,7.5-5.9,11.9l-6.2,5.9
				c-2.7,2.7-4.3,4.2-4.3,8.4v3.3h16.1v5.2h-22.8V250z"/>
			<path class="st2" d="M1081.2,246.3v-24.5c0-7.3,4.1-12.7,12.9-12.7c8.8,0,12.9,5.4,12.9,12.7v24.5c0,7.2-4.1,12.7-12.9,12.7
				C1085.2,259,1081.2,253.5,1081.2,246.3z M1099.9,247.3v-26.5c0-3.7-1.8-6.4-5.9-6.4c-4.1,0-5.9,2.7-5.9,6.4v26.5
				c0,3.7,1.8,6.4,5.9,6.4C1098.2,253.7,1099.9,251,1099.9,247.3z"/>
			<path class="st2" d="M1135,219.9v4.6c0,4.3-2.6,6.9-6.4,7.9c4.4,0.9,6.9,3.7,6.9,8.3v7.4c0,6.6-3.7,10.8-12.5,10.8
				c-8.7,0-12.1-4.3-12.1-11.5v-6.3h6.6v6.8c0,3.7,1.6,5.8,5.5,5.8c3.9,0,5.5-2.2,5.5-5.6v-8c0-3.3-1.8-5-5.6-5h-3.6v-4.9h3.3
				c3.7,0,5.9-1.8,5.9-4.9V220c0-3.7-1.6-5.5-5.2-5.5c-3.7,0-5.2,2-5.2,5.6v5h-6.5v-4.5c0-6.8,3.4-11.3,12.1-11.3
				C1131.4,209.2,1135,213.1,1135,219.9z"/>
			<path class="st2" d="M1139.6,246.3v-24.5c0-7.3,4.1-12.7,12.9-12.7c8.8,0,12.9,5.4,12.9,12.7v24.5c0,7.2-4.1,12.7-12.9,12.7
				C1143.7,259,1139.6,253.5,1139.6,246.3z M1158.4,247.3v-26.5c0-3.7-1.8-6.4-5.9-6.4c-4.1,0-5.9,2.7-5.9,6.4v26.5
				c0,3.7,1.8,6.4,5.9,6.4C1156.6,253.7,1158.4,251,1158.4,247.3z"/>
			<path class="st2" d="M1176.4,258.5l10.5-48.8h8.3l10.6,48.8h-7.2l-2.1-10.2h-11.3l-2,10.2H1176.4z M1186.2,243.1h9.2l-4.6-23
				h-0.1L1186.2,243.1z"/>
			<path class="st2" d="M1220.7,233h12.2v25.5h-5.4v-4.8c-1.1,3.1-3.6,5.3-8.7,5.3c-8,0-11.6-5.5-11.6-12.7v-24.5
				c0-7.2,3.9-12.7,13.1-12.7c9.7,0,12.5,4.7,12.5,11.7v4.3h-6.6v-4.7c0-3.8-1.4-6-5.8-6c-4.3,0-6.2,2.8-6.2,6.5v26.3
				c0,3.7,1.7,6.5,5.9,6.5c4.1,0,5.9-2.3,5.9-6.1V238h-5.5V233z"/>
			<path class="st2" d="M1237.4,209.7h21v5.2h-13.9v16.3h10v5.1h-10v17.1h13.9v5.2h-21V209.7z"/>
			<path class="st2" d="M1268.3,223.7v34.8h-6v-48.8h7.1l11.9,32.6v-32.6h6v48.8h-6.3L1268.3,223.7z"/>
			<path class="st2" d="M1304.4,209.7c9.6,0,12.9,5.5,12.9,12.7v23.5c0,7.1-3.4,12.7-12.9,12.7h-12.8v-48.8H1304.4z M1298.6,253.3
				h4.9c5,0,6.7-2.7,6.7-6.4v-25.7c0-3.6-1.8-6.3-6.7-6.3h-4.9V253.3z"/>
			<path class="st2" d="M1318.8,258.5l10.5-48.8h8.3l10.6,48.8h-7.2l-2.1-10.2h-11.3l-2,10.2H1318.8z M1328.6,243.1h9.2l-4.6-23
				h-0.1L1328.6,243.1z"/>
		</g>
	</g>
</g>
</svg>
