<?xml version="1.0" encoding="utf-8"?>
<!-- Generator: Adobe Illustrator 25.4.1, SVG Export Plug-In . SVG Version: 6.00 Build 0)  -->
<svg version="1.1" id="Layer_1" xmlns="http://www.w3.org/2000/svg" xmlns:xlink="http://www.w3.org/1999/xlink" x="0px" y="0px"
	 viewBox="0 0 205.3 37" style="enable-background:new 0 0 205.3 37;" xml:space="preserve">
<style type="text/css">
	.st0{clip-path:url(#SVGID_00000094585730910400422530000005700779555222687152_);fill:#009EDB;}
	.st1{fill:#009EDB;}
</style>
<g>
	<polygon points="125.4,0.7 126,0.7 126,37 125.4,37 125.4,0.7 	"/>
	<path d="M61,2.3V12c0,1.6-0.5,2.9-1.5,3.8c-1,0.9-2.4,1.4-4.1,1.4c-1.7,0-3.1-0.5-4.1-1.4c-1-0.9-1.5-2.2-1.5-3.8V2.3h3V12
		c0,1,0.2,1.7,0.7,2.1c0.5,0.4,1.1,0.7,1.9,0.7c1.7,0,2.6-0.9,2.6-2.7V2.3H61L61,2.3z"/>
	<path d="M66,6.1l0.1,1.3c0.8-1,1.8-1.5,3.1-1.5c1.2,0,2,0.3,2.6,1c0.6,0.7,0.9,1.7,0.9,3.1V17h-2.9v-7c0-0.6-0.1-1.1-0.4-1.3
		c-0.3-0.3-0.7-0.4-1.3-0.4c-0.8,0-1.4,0.3-1.8,1.1V17h-2.9V6.1H66L66,6.1z"/>
	<path d="M78,17H75V6.1H78V17L78,17z M74.9,3.3c0-0.4,0.1-0.8,0.4-1.1c0.3-0.3,0.7-0.4,1.2-0.4c0.5,0,0.9,0.1,1.2,0.4
		c0.3,0.3,0.4,0.6,0.4,1.1c0,0.4-0.2,0.8-0.4,1.1c-0.3,0.3-0.7,0.4-1.2,0.4c-0.5,0-0.9-0.1-1.2-0.4C75,4.1,74.9,3.7,74.9,3.3
		L74.9,3.3z"/>
	<path d="M83.9,3.4v2.7h1.9v2.1h-1.9v5.5c0,0.4,0.1,0.7,0.2,0.9c0.2,0.2,0.4,0.3,0.9,0.3c0.3,0,0.6,0,0.9-0.1V17
		c-0.6,0.2-1.2,0.3-1.8,0.3c-2.1,0-3.1-1-3.1-3.1V8.3h-1.6V6.1h1.6V3.4H83.9L83.9,3.4z"/>
	<path d="M91.7,8.3c-0.6,0-1.1,0.2-1.4,0.6c-0.4,0.4-0.6,1-0.7,1.7h4.1v-0.2c0-0.7-0.2-1.2-0.5-1.5C92.8,8.4,92.3,8.3,91.7,8.3
		L91.7,8.3z M92,17.3c-1.6,0-2.9-0.5-3.9-1.5c-1-1-1.5-2.3-1.5-3.9v-0.3c0-1.1,0.2-2.1,0.6-2.9c0.4-0.9,1-1.5,1.8-2
		c0.8-0.5,1.7-0.7,2.7-0.7c1.5,0,2.7,0.5,3.5,1.4c0.9,0.9,1.3,2.3,1.3,4v1.2h-7c0.1,0.7,0.4,1.3,0.9,1.7c0.5,0.4,1.1,0.6,1.8,0.6
		c1.1,0,2-0.4,2.6-1.2l1.4,1.6c-0.4,0.6-1,1.1-1.8,1.5C93.8,17.1,92.9,17.3,92,17.3L92,17.3z"/>
	<path d="M100.8,11.7c0,1,0.2,1.8,0.5,2.4c0.4,0.5,0.9,0.8,1.6,0.8c0.9,0,1.5-0.4,1.9-1.1V9.4c-0.4-0.8-1-1.1-1.9-1.1
		C101.5,8.3,100.8,9.4,100.8,11.7L100.8,11.7z M97.9,11.5c0-1.7,0.4-3.1,1.1-4.1c0.8-1,1.8-1.5,3.1-1.5c1.1,0,1.9,0.4,2.6,1.2V1.5
		h2.9v15.5h-2.6l-0.1-1.2c-0.7,0.9-1.7,1.4-2.8,1.4c-1.3,0-2.3-0.5-3.1-1.5C98.2,14.7,97.9,13.3,97.9,11.5L97.9,11.5z"/>
	<polygon points="61.8,34.9 58.8,34.9 52.9,25.2 52.9,34.9 49.8,34.9 49.8,20.1 52.9,20.1 58.8,29.8 58.8,20.1 61.8,20.1 61.8,34.9 
			"/>
	<path d="M67.7,32.8c0.4,0,0.8-0.1,1.2-0.3c0.4-0.2,0.6-0.4,0.8-0.8v-1.9h-1.1c-1.5,0-2.2,0.5-2.3,1.5l0,0.2c0,0.4,0.1,0.7,0.4,0.9
		C66.9,32.7,67.2,32.8,67.7,32.8L67.7,32.8z M70.1,34.9c-0.1-0.3-0.2-0.6-0.3-1c-0.7,0.8-1.6,1.2-2.8,1.2c-1.1,0-2-0.3-2.7-0.9
		c-0.7-0.6-1.1-1.4-1.1-2.3c0-1.2,0.4-2.1,1.3-2.7c0.9-0.6,2.1-0.9,3.7-0.9h1.3v-0.6c0-0.5-0.1-0.9-0.4-1.2C69,26,68.6,25.9,68,25.9
		c-0.5,0-0.9,0.1-1.2,0.4c-0.3,0.2-0.4,0.6-0.4,1h-2.9c0-0.6,0.2-1.2,0.6-1.8c0.4-0.5,0.9-1,1.7-1.3c0.7-0.3,1.5-0.5,2.4-0.5
		c1.3,0,2.4,0.3,3.2,1c0.8,0.7,1.2,1.6,1.2,2.9v4.7c0,1,0.2,1.8,0.4,2.4v0.2L70.1,34.9L70.1,34.9L70.1,34.9z"/>
	<path d="M78,21.2v2.7h1.9v2.1H78v5.5c0,0.4,0.1,0.7,0.2,0.9c0.2,0.2,0.4,0.3,0.9,0.3c0.3,0,0.6,0,0.9-0.1v2.2
		c-0.6,0.2-1.2,0.3-1.8,0.3c-2.1,0-3.1-1-3.1-3.1v-5.9h-1.6v-2.1H75v-2.7L78,21.2L78,21.2L78,21.2z"/>
	<path d="M84.5,34.9h-2.9V23.9h2.9V34.9L84.5,34.9z M81.4,21.1c0-0.4,0.1-0.8,0.4-1.1c0.3-0.3,0.7-0.4,1.2-0.4
		c0.5,0,0.9,0.1,1.2,0.4c0.3,0.3,0.4,0.6,0.4,1.1c0,0.4-0.2,0.8-0.4,1.1c-0.3,0.3-0.7,0.4-1.2,0.4c-0.5,0-0.9-0.1-1.2-0.4
		C81.6,21.9,81.4,21.5,81.4,21.1L81.4,21.1z"/>
	<path d="M89.4,29.5c0,1,0.2,1.8,0.6,2.4c0.4,0.6,1,0.8,1.7,0.8c0.7,0,1.3-0.3,1.7-0.8c0.4-0.5,0.6-1.4,0.6-2.6c0-1-0.2-1.8-0.6-2.4
		c-0.4-0.6-1-0.8-1.7-0.8c-0.7,0-1.3,0.3-1.7,0.8C89.6,27.5,89.4,28.3,89.4,29.5L89.4,29.5z M86.5,29.3c0-1.1,0.2-2.1,0.6-2.9
		c0.4-0.8,1-1.5,1.8-2c0.8-0.5,1.7-0.7,2.7-0.7c1.5,0,2.7,0.4,3.6,1.4c0.9,0.9,1.5,2.1,1.6,3.7l0,0.7c0,1.7-0.5,3-1.4,4
		c-0.9,1-2.2,1.5-3.8,1.5c-1.6,0-2.8-0.5-3.8-1.5c-0.9-1-1.4-2.4-1.4-4.1L86.5,29.3L86.5,29.3L86.5,29.3z"/>
	<path d="M101.3,23.9l0.1,1.3c0.8-1,1.8-1.5,3.1-1.5c1.2,0,2,0.3,2.6,1c0.6,0.7,0.9,1.7,0.9,3.1v7.1h-2.9v-7c0-0.6-0.1-1.1-0.4-1.3
		c-0.3-0.3-0.7-0.4-1.3-0.4c-0.8,0-1.4,0.3-1.8,1.1v7.7h-2.9V23.9L101.3,23.9L101.3,23.9L101.3,23.9z"/>
	<path d="M115.9,31.8c0-0.4-0.2-0.6-0.5-0.8c-0.3-0.2-0.9-0.4-1.7-0.6c-2.6-0.5-3.9-1.7-3.9-3.3c0-1,0.4-1.8,1.2-2.4
		c0.8-0.7,1.9-1,3.2-1c1.4,0,2.5,0.3,3.3,1c0.8,0.7,1.2,1.5,1.2,2.5h-2.9c0-0.4-0.1-0.8-0.4-1c-0.3-0.3-0.7-0.4-1.3-0.4
		c-0.5,0-0.9,0.1-1.1,0.3c-0.3,0.2-0.4,0.5-0.4,0.8c0,0.3,0.2,0.6,0.5,0.8c0.3,0.2,0.8,0.4,1.6,0.5c0.7,0.1,1.3,0.3,1.8,0.5
		c1.5,0.6,2.3,1.5,2.3,2.9c0,1-0.4,1.8-1.3,2.4c-0.9,0.6-2,0.9-3.3,0.9c-0.9,0-1.7-0.2-2.4-0.5c-0.7-0.3-1.3-0.8-1.7-1.3
		c-0.4-0.6-0.6-1.2-0.6-1.8h2.8c0,0.5,0.2,0.9,0.6,1.2c0.4,0.3,0.8,0.4,1.4,0.4c0.6,0,1-0.1,1.3-0.3
		C115.7,32.5,115.9,32.2,115.9,31.8L115.9,31.8z"/>
	<path d="M133.7,2.9v6.4h1.1c0.8,0,1.5-0.3,1.9-0.8s0.7-1.2,0.7-2.2V5.8c0-0.9-0.2-1.6-0.7-2.2c-0.4-0.5-1.1-0.8-1.8-0.8H133.7
		L133.7,2.9z M132.6,10.1V2h2.3c0.7,0,1.3,0.2,1.9,0.5c0.5,0.3,1,0.8,1.3,1.3c0.3,0.6,0.4,1.2,0.4,2v0.5c0,0.8-0.1,1.4-0.4,2
		c-0.3,0.6-0.7,1-1.3,1.3c-0.6,0.3-1.2,0.5-1.9,0.5H132.6L132.6,10.1z"/>
	<path d="M142.3,4.8c-0.4,0-0.8,0.2-1.1,0.5c-0.3,0.3-0.5,0.7-0.5,1.3h3V6.5c0-0.5-0.2-0.9-0.4-1.2C143.1,5,142.7,4.8,142.3,4.8
		L142.3,4.8z M142.4,10.3c-0.8,0-1.5-0.3-2-0.8c-0.5-0.5-0.8-1.3-0.8-2.2V7.1c0-0.6,0.1-1.1,0.3-1.6c0.2-0.5,0.6-0.8,1-1.1
		c0.4-0.3,0.9-0.4,1.3-0.4c0.8,0,1.4,0.3,1.8,0.8c0.4,0.5,0.7,1.3,0.7,2.2v0.4h-4.1c0,0.6,0.2,1.1,0.5,1.4c0.3,0.4,0.8,0.6,1.3,0.6
		c0.4,0,0.7-0.1,0.9-0.2c0.3-0.2,0.5-0.3,0.7-0.6l0.6,0.5C144.2,9.9,143.5,10.3,142.4,10.3L142.4,10.3z"/>
	<path d="M150.1,7.1c0-0.7-0.1-1.2-0.4-1.6c-0.3-0.4-0.7-0.6-1.2-0.6c-0.6,0-1.1,0.3-1.4,0.8v2.9c0.3,0.6,0.8,0.8,1.4,0.8
		c0.5,0,0.9-0.2,1.2-0.6C149.9,8.4,150.1,7.8,150.1,7.1L150.1,7.1z M151.1,7.2c0,0.9-0.2,1.7-0.6,2.2c-0.4,0.6-1,0.8-1.7,0.8
		c-0.7,0-1.3-0.2-1.7-0.7v2.9h-1V4.1h0.9l0.1,0.7c0.4-0.5,1-0.8,1.8-0.8c0.7,0,1.3,0.3,1.7,0.8C150.9,5.4,151.1,6.1,151.1,7.2
		L151.1,7.2L151.1,7.2L151.1,7.2z"/>
	<path d="M154.4,9.4c0.3,0,0.6-0.1,0.9-0.3c0.3-0.2,0.5-0.4,0.6-0.7V7.2h-0.8c-1.3,0-1.9,0.4-1.9,1.1c0,0.3,0.1,0.6,0.3,0.8
		C153.8,9.3,154.1,9.4,154.4,9.4L154.4,9.4z M156.2,10.1c-0.1-0.1-0.1-0.3-0.1-0.6c-0.5,0.5-1.1,0.7-1.7,0.7c-0.6,0-1.1-0.2-1.5-0.5
		c-0.4-0.3-0.6-0.8-0.6-1.3c0-0.6,0.2-1.1,0.7-1.5c0.5-0.3,1.2-0.5,2-0.5h1V6c0-0.4-0.1-0.7-0.3-0.9c-0.2-0.2-0.5-0.3-1-0.3
		c-0.4,0-0.7,0.1-0.9,0.3c-0.2,0.2-0.4,0.4-0.4,0.7h-1c0-0.3,0.1-0.6,0.3-0.9c0.2-0.3,0.5-0.5,0.9-0.7c0.4-0.2,0.8-0.2,1.2-0.2
		c0.7,0,1.2,0.2,1.6,0.5c0.4,0.3,0.6,0.8,0.6,1.4v2.8c0,0.6,0.1,1,0.2,1.3v0.1L156.2,10.1L156.2,10.1L156.2,10.1z"/>
	<path d="M161.6,5c-0.2,0-0.3,0-0.5,0c-0.7,0-1.1,0.3-1.4,0.9v4.3h-1v-6h1l0,0.7c0.3-0.5,0.8-0.8,1.4-0.8c0.2,0,0.4,0,0.5,0.1V5
		L161.6,5L161.6,5z"/>
	<path d="M164.2,2.6v1.5h1.1v0.8h-1.1v3.8c0,0.2,0.1,0.4,0.2,0.5c0.1,0.1,0.3,0.2,0.5,0.2c0.1,0,0.3,0,0.5-0.1v0.8
		c-0.3,0.1-0.5,0.1-0.8,0.1c-0.5,0-0.8-0.1-1-0.4c-0.2-0.3-0.4-0.7-0.4-1.2V4.9h-1.1V4.1h1.1V2.6H164.2L164.2,2.6z"/>
	<path d="M167.5,4.1l0,0.7c0.4-0.5,1-0.8,1.8-0.8c0.8,0,1.4,0.3,1.7,1c0.2-0.3,0.5-0.5,0.8-0.7c0.3-0.2,0.7-0.3,1.1-0.3
		c1.3,0,2,0.7,2,2.1v4.1h-1v-4c0-0.4-0.1-0.8-0.3-1c-0.2-0.2-0.5-0.3-1-0.3c-0.4,0-0.7,0.1-1,0.3s-0.4,0.5-0.4,0.9v4h-1v-4
		c0-0.9-0.4-1.3-1.3-1.3c-0.7,0-1.1,0.3-1.4,0.9v4.4h-1V4.1H167.5L167.5,4.1z"/>
	<path d="M179,4.8c-0.4,0-0.8,0.2-1.1,0.5c-0.3,0.3-0.5,0.7-0.5,1.3h3V6.5c0-0.5-0.2-0.9-0.4-1.2C179.7,5,179.4,4.8,179,4.8L179,4.8
		z M179.1,10.3c-0.8,0-1.5-0.3-2-0.8c-0.5-0.5-0.8-1.3-0.8-2.2V7.1c0-0.6,0.1-1.1,0.3-1.6c0.2-0.5,0.6-0.8,1-1.1
		C178,4.1,178.5,4,179,4c0.8,0,1.4,0.3,1.8,0.8c0.4,0.5,0.7,1.3,0.7,2.2v0.4h-4.1c0,0.6,0.2,1.1,0.5,1.4c0.3,0.4,0.8,0.6,1.3,0.6
		c0.4,0,0.7-0.1,0.9-0.2c0.3-0.2,0.5-0.3,0.7-0.6l0.6,0.5C180.9,9.9,180.1,10.3,179.1,10.3L179.1,10.3z"/>
	<path d="M183.6,4.1l0,0.8c0.5-0.6,1.1-0.9,1.8-0.9c1.3,0,1.9,0.7,1.9,2.2v4h-1v-4c0-0.4-0.1-0.8-0.3-1c-0.2-0.2-0.5-0.3-0.9-0.3
		c-0.3,0-0.6,0.1-0.9,0.3c-0.3,0.2-0.4,0.4-0.6,0.7v4.3h-1V4.1H183.6L183.6,4.1z"/>
	<path d="M190.4,2.6v1.5h1.1v0.8h-1.1v3.8c0,0.2,0.1,0.4,0.2,0.5c0.1,0.1,0.3,0.2,0.5,0.2c0.1,0,0.3,0,0.5-0.1v0.8
		c-0.3,0.1-0.5,0.1-0.8,0.1c-0.5,0-0.8-0.1-1-0.4c-0.2-0.3-0.4-0.7-0.4-1.2V4.9h-1.1V4.1h1.1V2.6H190.4L190.4,2.6z"/>
	<path d="M196.3,7.2c0,0.7,0.2,1.2,0.5,1.6c0.3,0.4,0.7,0.6,1.2,0.6c0.5,0,0.9-0.2,1.3-0.6c0.3-0.4,0.5-1,0.5-1.7
		c0-0.7-0.2-1.2-0.5-1.6C199,5,198.6,4.8,198,4.8c-0.5,0-0.9,0.2-1.2,0.6C196.5,5.8,196.3,6.4,196.3,7.2L196.3,7.2z M195.3,7.1
		c0-0.6,0.1-1.1,0.3-1.6c0.2-0.5,0.6-0.8,1-1.1C197,4.1,197.5,4,198,4c0.8,0,1.5,0.3,2,0.9c0.5,0.6,0.8,1.3,0.8,2.3v0.1
		c0,0.6-0.1,1.1-0.3,1.6c-0.2,0.5-0.6,0.8-1,1.1c-0.4,0.3-0.9,0.4-1.4,0.4c-0.8,0-1.5-0.3-2-0.9C195.5,8.8,195.3,8.1,195.3,7.1
		L195.3,7.1L195.3,7.1L195.3,7.1z"/>
	<path d="M202.6,10.1V4.9h-1V4.1h1V3.5c0-0.6,0.2-1.2,0.5-1.5c0.3-0.4,0.8-0.5,1.5-0.5c0.2,0,0.5,0,0.7,0.1l-0.1,0.8
		c-0.2,0-0.4-0.1-0.6-0.1c-0.3,0-0.6,0.1-0.8,0.3c-0.2,0.2-0.3,0.5-0.3,0.8v0.6h1.3v0.8h-1.3v5.3H202.6L202.6,10.1z"/>
	<polygon points="137.2,18.7 133.6,18.7 133.6,21.6 137.7,21.6 137.7,22.4 132.6,22.4 132.6,14.3 137.7,14.3 137.7,15.2 133.6,15.2 
		133.6,17.8 137.2,17.8 137.2,18.7 137.2,18.7 	"/>
	<path d="M141.4,21.7c0.4,0,0.7-0.1,1-0.3c0.3-0.2,0.4-0.5,0.5-0.8h1c0,0.3-0.1,0.7-0.4,1c-0.2,0.3-0.5,0.6-0.9,0.7
		c-0.4,0.2-0.8,0.3-1.2,0.3c-0.8,0-1.5-0.3-2-0.8c-0.5-0.6-0.7-1.3-0.7-2.3v-0.2c0-0.6,0.1-1.1,0.3-1.6c0.2-0.5,0.5-0.8,0.9-1.1
		c0.4-0.3,0.9-0.4,1.4-0.4c0.7,0,1.2,0.2,1.7,0.6c0.4,0.4,0.7,0.9,0.7,1.6h-1c0-0.4-0.2-0.7-0.4-1c-0.3-0.3-0.6-0.4-1-0.4
		c-0.5,0-0.9,0.2-1.2,0.6c-0.3,0.4-0.4,0.9-0.4,1.6v0.2c0,0.7,0.1,1.2,0.4,1.6C140.5,21.5,140.9,21.7,141.4,21.7L141.4,21.7z"/>
	<path d="M145.9,19.5c0,0.7,0.2,1.2,0.5,1.6c0.3,0.4,0.7,0.6,1.2,0.6c0.5,0,0.9-0.2,1.3-0.6c0.3-0.4,0.5-1,0.5-1.7
		c0-0.7-0.2-1.2-0.5-1.6c-0.3-0.4-0.7-0.6-1.3-0.6c-0.5,0-0.9,0.2-1.2,0.6C146.1,18.2,145.9,18.7,145.9,19.5L145.9,19.5z
		 M144.9,19.4c0-0.6,0.1-1.1,0.3-1.6c0.2-0.5,0.6-0.8,1-1.1c0.4-0.3,0.9-0.4,1.4-0.4c0.8,0,1.5,0.3,2,0.9c0.5,0.6,0.8,1.3,0.8,2.3
		v0.1c0,0.6-0.1,1.1-0.3,1.6c-0.2,0.5-0.6,0.8-1,1.1c-0.4,0.3-0.9,0.4-1.4,0.4c-0.8,0-1.5-0.3-2-0.9
		C145.1,21.1,144.9,20.4,144.9,19.4L144.9,19.4L144.9,19.4L144.9,19.4z"/>
	<path d="M152.8,16.4l0,0.8c0.5-0.6,1.1-0.9,1.8-0.9c1.3,0,1.9,0.7,1.9,2.2v4h-1v-4c0-0.4-0.1-0.8-0.3-1c-0.2-0.2-0.5-0.3-0.9-0.3
		c-0.3,0-0.6,0.1-0.9,0.3c-0.3,0.2-0.4,0.4-0.6,0.7v4.3h-1v-6.1H152.8L152.8,16.4z"/>
	<path d="M159.1,19.5c0,0.7,0.2,1.2,0.5,1.6c0.3,0.4,0.7,0.6,1.2,0.6c0.5,0,0.9-0.2,1.3-0.6c0.3-0.4,0.5-1,0.5-1.7
		c0-0.7-0.2-1.2-0.5-1.6c-0.3-0.4-0.7-0.6-1.3-0.6c-0.5,0-0.9,0.2-1.2,0.6C159.2,18.2,159.1,18.7,159.1,19.5L159.1,19.5z M158,19.4
		c0-0.6,0.1-1.1,0.3-1.6c0.2-0.5,0.6-0.8,1-1.1c0.4-0.3,0.9-0.4,1.4-0.4c0.8,0,1.5,0.3,2,0.9c0.5,0.6,0.8,1.3,0.8,2.3v0.1
		c0,0.6-0.1,1.1-0.3,1.6c-0.2,0.5-0.6,0.8-1,1.1c-0.4,0.3-0.9,0.4-1.4,0.4c-0.8,0-1.5-0.3-2-0.9C158.3,21.1,158,20.4,158,19.4
		L158,19.4L158,19.4L158,19.4z"/>
	<path d="M166,16.4l0,0.7c0.4-0.5,1-0.8,1.8-0.8c0.8,0,1.4,0.3,1.7,1c0.2-0.3,0.5-0.5,0.8-0.7c0.3-0.2,0.7-0.3,1.1-0.3
		c1.3,0,2,0.7,2,2.1v4.1h-1v-4c0-0.4-0.1-0.8-0.3-1c-0.2-0.2-0.5-0.3-1-0.3c-0.4,0-0.7,0.1-1,0.3c-0.3,0.2-0.4,0.5-0.4,0.9v4h-1v-4
		c0-0.9-0.4-1.3-1.3-1.3c-0.7,0-1.1,0.3-1.4,0.9v4.4h-1v-6.1H166L166,16.4z"/>
	<path d="M176.3,22.4h-1v-6.1h1V22.4L176.3,22.4z M175.2,14.8c0-0.2,0.1-0.3,0.2-0.4c0.1-0.1,0.3-0.2,0.5-0.2c0.2,0,0.4,0.1,0.5,0.2
		c0.1,0.1,0.2,0.3,0.2,0.4c0,0.2-0.1,0.3-0.2,0.4c-0.1,0.1-0.3,0.2-0.5,0.2c-0.2,0-0.4-0.1-0.5-0.2C175.3,15.1,175.2,15,175.2,14.8
		L175.2,14.8z"/>
	<path d="M180.6,21.7c0.4,0,0.7-0.1,1-0.3c0.3-0.2,0.4-0.5,0.5-0.8h1c0,0.3-0.1,0.7-0.4,1c-0.2,0.3-0.5,0.6-0.9,0.7
		c-0.4,0.2-0.8,0.3-1.2,0.3c-0.8,0-1.5-0.3-2-0.8c-0.5-0.6-0.7-1.3-0.7-2.3v-0.2c0-0.6,0.1-1.1,0.3-1.6c0.2-0.5,0.5-0.8,0.9-1.1
		c0.4-0.3,0.9-0.4,1.4-0.4c0.7,0,1.2,0.2,1.7,0.6c0.4,0.4,0.7,0.9,0.7,1.6h-1c0-0.4-0.2-0.7-0.4-1c-0.3-0.3-0.6-0.4-1-0.4
		c-0.5,0-0.9,0.2-1.2,0.6c-0.3,0.4-0.4,0.9-0.4,1.6v0.2c0,0.7,0.1,1.2,0.4,1.6C179.6,21.5,180,21.7,180.6,21.7L180.6,21.7z"/>
	<path d="M189.3,21.7c0.3,0,0.6-0.1,0.9-0.3c0.3-0.2,0.5-0.4,0.6-0.7v-1.2h-0.8c-1.3,0-1.9,0.4-1.9,1.1c0,0.3,0.1,0.6,0.3,0.8
		C188.7,21.6,189,21.7,189.3,21.7L189.3,21.7z M191,22.4c-0.1-0.1-0.1-0.3-0.1-0.6c-0.5,0.5-1.1,0.7-1.7,0.7c-0.6,0-1.1-0.2-1.5-0.5
		c-0.4-0.3-0.6-0.8-0.6-1.3c0-0.6,0.2-1.1,0.7-1.5c0.5-0.3,1.2-0.5,2-0.5h1v-0.5c0-0.4-0.1-0.7-0.3-0.9c-0.2-0.2-0.5-0.3-1-0.3
		c-0.4,0-0.7,0.1-0.9,0.3c-0.2,0.2-0.4,0.4-0.4,0.7h-1c0-0.3,0.1-0.6,0.3-0.9c0.2-0.3,0.5-0.5,0.9-0.7c0.4-0.2,0.8-0.2,1.2-0.2
		c0.7,0,1.2,0.2,1.6,0.5c0.4,0.3,0.6,0.8,0.6,1.4V21c0,0.6,0.1,1,0.2,1.3v0.1H191L191,22.4z"/>
	<path d="M194.7,16.4l0,0.8c0.5-0.6,1.1-0.9,1.8-0.9c1.3,0,1.9,0.7,1.9,2.2v4h-1v-4c0-0.4-0.1-0.8-0.3-1c-0.2-0.2-0.5-0.3-0.9-0.3
		c-0.3,0-0.6,0.1-0.9,0.3c-0.3,0.2-0.4,0.4-0.6,0.7v4.3h-1v-6.1H194.7L194.7,16.4z"/>
	<path d="M201,19.5c0,0.7,0.1,1.2,0.4,1.6c0.3,0.4,0.7,0.6,1.2,0.6c0.7,0,1.1-0.3,1.4-0.9V18c-0.3-0.6-0.8-0.9-1.4-0.9
		c-0.5,0-0.9,0.2-1.2,0.6C201.1,18.1,201,18.7,201,19.5L201,19.5z M199.9,19.4c0-0.9,0.2-1.7,0.7-2.2s1-0.8,1.7-0.8
		c0.7,0,1.3,0.2,1.7,0.7v-3.2h1v8.6h-1l-0.1-0.6c-0.4,0.5-1,0.8-1.7,0.8c-0.7,0-1.3-0.3-1.7-0.9C200.1,21.1,199.9,20.4,199.9,19.4
		L199.9,19.4L199.9,19.4z"/>
	<path d="M135,31.1c-0.9-0.3-1.6-0.6-2-1c-0.4-0.4-0.6-0.9-0.6-1.4c0-0.6,0.3-1.2,0.8-1.6c0.5-0.4,1.2-0.6,2-0.6
		c0.6,0,1.1,0.1,1.5,0.3c0.4,0.2,0.8,0.5,1,0.9c0.2,0.4,0.4,0.8,0.4,1.2h-1.1c0-0.5-0.2-0.9-0.5-1.2c-0.3-0.3-0.8-0.4-1.3-0.4
		c-0.5,0-0.9,0.1-1.2,0.3c-0.3,0.2-0.4,0.6-0.4,1c0,0.3,0.1,0.6,0.4,0.8c0.3,0.2,0.8,0.4,1.4,0.6c0.7,0.2,1.2,0.4,1.6,0.6
		c0.4,0.2,0.7,0.5,0.8,0.8c0.2,0.3,0.3,0.7,0.3,1.1c0,0.7-0.3,1.2-0.8,1.6c-0.5,0.4-1.2,0.6-2.1,0.6c-0.6,0-1.1-0.1-1.6-0.3
		c-0.5-0.2-0.9-0.5-1.1-0.9c-0.3-0.4-0.4-0.8-0.4-1.3h1.1c0,0.5,0.2,0.9,0.5,1.2c0.4,0.3,0.8,0.4,1.5,0.4c0.6,0,1-0.1,1.3-0.3
		c0.3-0.2,0.4-0.5,0.4-0.9c0-0.4-0.1-0.7-0.4-0.9C136.2,31.5,135.7,31.3,135,31.1L135,31.1z"/>
	<path d="M140.4,31.8c0,0.7,0.2,1.2,0.5,1.6c0.3,0.4,0.7,0.6,1.2,0.6c0.5,0,0.9-0.2,1.3-0.6c0.3-0.4,0.5-1,0.5-1.7
		c0-0.7-0.2-1.2-0.5-1.6c-0.3-0.4-0.7-0.6-1.3-0.6c-0.5,0-0.9,0.2-1.2,0.6C140.6,30.5,140.4,31,140.4,31.8L140.4,31.8z M139.4,31.7
		c0-0.6,0.1-1.1,0.3-1.6c0.2-0.5,0.6-0.8,1-1.1c0.4-0.3,0.9-0.4,1.4-0.4c0.8,0,1.5,0.3,2,0.9c0.5,0.6,0.8,1.3,0.8,2.3v0.1
		c0,0.6-0.1,1.1-0.3,1.6c-0.2,0.5-0.6,0.8-1,1.1c-0.4,0.3-0.9,0.4-1.4,0.4c-0.8,0-1.5-0.3-2-0.9C139.7,33.4,139.4,32.7,139.4,31.7
		L139.4,31.7L139.4,31.7L139.4,31.7z"/>
	<path d="M149.1,34c0.4,0,0.7-0.1,1-0.3c0.3-0.2,0.4-0.5,0.5-0.8h1c0,0.3-0.1,0.7-0.4,1c-0.2,0.3-0.5,0.6-0.9,0.7
		c-0.4,0.2-0.8,0.3-1.2,0.3c-0.8,0-1.5-0.3-2-0.8c-0.5-0.6-0.7-1.3-0.7-2.3v-0.2c0-0.6,0.1-1.1,0.3-1.6c0.2-0.5,0.5-0.8,0.9-1.1
		c0.4-0.3,0.9-0.4,1.4-0.4c0.7,0,1.2,0.2,1.7,0.6c0.4,0.4,0.7,0.9,0.7,1.6h-1c0-0.4-0.2-0.7-0.4-1c-0.3-0.3-0.6-0.4-1-0.4
		c-0.5,0-0.9,0.2-1.2,0.6c-0.3,0.4-0.4,0.9-0.4,1.6v0.2c0,0.7,0.1,1.2,0.4,1.6C148.2,33.8,148.6,34,149.1,34L149.1,34z"/>
	<path d="M154.3,34.7h-1v-6.1h1V34.7L154.3,34.7z M153.2,27.1c0-0.2,0.1-0.3,0.2-0.4c0.1-0.1,0.3-0.2,0.5-0.2c0.2,0,0.4,0.1,0.5,0.2
		c0.1,0.1,0.2,0.3,0.2,0.4c0,0.2-0.1,0.3-0.2,0.4c-0.1,0.1-0.3,0.2-0.5,0.2c-0.2,0-0.4-0.1-0.5-0.2
		C153.2,27.4,153.2,27.3,153.2,27.1L153.2,27.1z"/>
	<path d="M158.4,34c0.3,0,0.6-0.1,0.9-0.3c0.3-0.2,0.5-0.4,0.6-0.7v-1.2h-0.8c-1.3,0-1.9,0.4-1.9,1.1c0,0.3,0.1,0.6,0.3,0.8
		C157.8,33.9,158.1,34,158.4,34L158.4,34z M160.1,34.7c-0.1-0.1-0.1-0.3-0.1-0.6c-0.5,0.5-1.1,0.7-1.7,0.7c-0.6,0-1.1-0.2-1.5-0.5
		c-0.4-0.3-0.6-0.8-0.6-1.3c0-0.6,0.2-1.1,0.7-1.5c0.5-0.3,1.2-0.5,2-0.5h1v-0.5c0-0.4-0.1-0.7-0.3-0.9c-0.2-0.2-0.5-0.3-1-0.3
		c-0.4,0-0.7,0.1-0.9,0.3c-0.2,0.2-0.4,0.4-0.4,0.7h-1c0-0.3,0.1-0.6,0.3-0.9c0.2-0.3,0.5-0.5,0.9-0.7c0.4-0.2,0.8-0.2,1.2-0.2
		c0.7,0,1.2,0.2,1.6,0.5c0.4,0.3,0.6,0.8,0.6,1.4v2.8c0,0.6,0.1,1,0.2,1.3v0.1H160.1L160.1,34.7z"/>
	<polygon points="164.2,34.7 163.2,34.7 163.2,26.2 164.2,26.2 164.2,34.7 	"/>
	<path d="M171.2,31.7h2.8l-1.4-3.8L171.2,31.7L171.2,31.7z M174.3,32.6h-3.4l-0.8,2.1H169l3.1-8.1h0.9l3.1,8.1h-1.1L174.3,32.6
		L174.3,32.6z"/>
	<path d="M178.1,34.7v-5.3h-1v-0.8h1v-0.6c0-0.6,0.2-1.2,0.5-1.5c0.3-0.4,0.8-0.5,1.5-0.5c0.2,0,0.5,0,0.7,0.1l-0.1,0.8
		c-0.2,0-0.4-0.1-0.6-0.1c-0.3,0-0.6,0.1-0.8,0.3c-0.2,0.2-0.3,0.5-0.3,0.8v0.6h1.3v0.8h-1.3v5.3H178.1L178.1,34.7z"/>
	<path d="M182.6,34.7v-5.3h-1v-0.8h1v-0.6c0-0.6,0.2-1.2,0.5-1.5c0.3-0.4,0.8-0.5,1.5-0.5c0.2,0,0.5,0,0.7,0.1l-0.1,0.8
		c-0.2,0-0.4-0.1-0.6-0.1c-0.3,0-0.6,0.1-0.8,0.3c-0.2,0.2-0.3,0.5-0.3,0.8v0.6h1.3v0.8h-1.3v5.3H182.6L182.6,34.7z"/>
	<path d="M188.5,34c0.3,0,0.6-0.1,0.9-0.3c0.3-0.2,0.5-0.4,0.6-0.7v-1.2h-0.8c-1.3,0-1.9,0.4-1.9,1.1c0,0.3,0.1,0.6,0.3,0.8
		C187.9,33.9,188.2,34,188.5,34L188.5,34z M190.2,34.7c-0.1-0.1-0.1-0.3-0.1-0.6c-0.5,0.5-1.1,0.7-1.7,0.7c-0.6,0-1.1-0.2-1.5-0.5
		c-0.4-0.3-0.6-0.8-0.6-1.3c0-0.6,0.2-1.1,0.7-1.5c0.5-0.3,1.2-0.5,2-0.5h1v-0.5c0-0.4-0.1-0.7-0.3-0.9c-0.2-0.2-0.5-0.3-1-0.3
		c-0.4,0-0.7,0.1-0.9,0.3c-0.2,0.2-0.4,0.4-0.4,0.7h-1c0-0.3,0.1-0.6,0.3-0.9c0.2-0.3,0.5-0.5,0.9-0.7c0.4-0.2,0.8-0.2,1.2-0.2
		c0.7,0,1.2,0.2,1.6,0.5c0.4,0.3,0.6,0.8,0.6,1.4v2.8c0,0.6,0.1,1,0.2,1.3v0.1H190.2L190.2,34.7z"/>
	<path d="M194.3,34.7h-1v-6.1h1V34.7L194.3,34.7z M193.2,27.1c0-0.2,0.1-0.3,0.2-0.4c0.1-0.1,0.3-0.2,0.5-0.2c0.2,0,0.4,0.1,0.5,0.2
		c0.1,0.1,0.2,0.3,0.2,0.4c0,0.2-0.1,0.3-0.2,0.4c-0.1,0.1-0.3,0.2-0.5,0.2c-0.2,0-0.4-0.1-0.5-0.2
		C193.2,27.4,193.2,27.3,193.2,27.1L193.2,27.1z"/>
	<path d="M199.4,29.6c-0.2,0-0.3,0-0.5,0c-0.7,0-1.1,0.3-1.4,0.9v4.3h-1v-6.1h1l0,0.7c0.3-0.5,0.8-0.8,1.4-0.8c0.2,0,0.4,0,0.5,0.1
		V29.6L199.4,29.6L199.4,29.6z"/>
	<path d="M204.3,33.1c0-0.3-0.1-0.5-0.3-0.7c-0.2-0.2-0.6-0.3-1.1-0.4c-0.5-0.1-0.9-0.2-1.2-0.4c-0.3-0.2-0.5-0.3-0.7-0.6
		c-0.1-0.2-0.2-0.5-0.2-0.8c0-0.5,0.2-0.9,0.6-1.3c0.4-0.3,1-0.5,1.6-0.5c0.7,0,1.2,0.2,1.7,0.5c0.4,0.4,0.6,0.8,0.6,1.4h-1
		c0-0.3-0.1-0.5-0.4-0.7c-0.2-0.2-0.5-0.3-0.9-0.3c-0.4,0-0.7,0.1-0.9,0.2c-0.2,0.2-0.3,0.4-0.3,0.6c0,0.2,0.1,0.4,0.3,0.6
		c0.2,0.1,0.6,0.2,1.1,0.4c0.5,0.1,0.9,0.3,1.3,0.4c0.3,0.2,0.6,0.4,0.7,0.6c0.2,0.2,0.2,0.5,0.2,0.8c0,0.5-0.2,1-0.6,1.3
		c-0.4,0.3-1,0.5-1.7,0.5c-0.5,0-0.9-0.1-1.3-0.3c-0.4-0.2-0.7-0.4-0.9-0.7c-0.2-0.3-0.3-0.6-0.3-1h1c0,0.3,0.2,0.6,0.4,0.8
		c0.3,0.2,0.6,0.3,1,0.3c0.4,0,0.7-0.1,0.9-0.2C204.2,33.6,204.3,33.4,204.3,33.1L204.3,33.1z"/>
	<g>
		<defs>
			<rect id="SVGID_1_" x="0" y="0" width="205.3" height="37"/>
		</defs>
		<clipPath id="SVGID_00000116203553082013956570000003329718918063134859_">
			<use xlink:href="#SVGID_1_"  style="overflow:visible;"/>
		</clipPath>
		<path style="clip-path:url(#SVGID_00000116203553082013956570000003329718918063134859_);fill:#009EDB;" d="M9.9,27.8
			c-0.1-0.3-0.4-0.8-0.7-1.3l0.1-0.1c0.2,0.2,0.5,0.4,0.7,0.6V27.8L9.9,27.8z M9.9,34.1c-0.6-0.3-1.2-0.8-1.8-1.4l0.1-0.1
			c0.8,0.4,1.3,0.6,1.7,0.7V34.1L9.9,34.1z M9.9,25.2c-2.3-2.7-3.6-6.2-3.6-10c0-3.8,1.4-7.3,3.6-10v1.4C8.2,8.9,7.1,11.6,7,14.5
			c0,0.1,0,0.2-0.1,0.4c0.1-0.1,0.3-0.1,0.4-0.1h1.8c0.1,0,0.2,0,0.3,0.1c-0.1-0.1-0.1-0.2-0.1-0.3c-0.1-1,0.2-1.9,0.5-2.9v9.6
			c-0.2-0.2-0.4-0.4-0.5-0.5H9.4c0,0.1-0.1,0.2-0.2,0.2c-0.2,0-0.3-0.2-0.6-0.5c-0.2,0.1-0.3,0.1-0.3-0.1L8,19.5c0-0.2,0.1-1,0.6-1
			c0.1,0,0.1,0,0.2,0.1C8.9,18.6,9,18.5,9,18.3l0.4-0.2l0.3,0.4c0.1,0.1,0.1,0.1,0.1,0.1c-0.1-0.2-0.2-0.4-0.2-0.8
			c-0.1-0.5-0.3-1.7-0.3-2c0-0.1,0-0.2,0.1-0.3c-0.1,0.1-0.2,0.1-0.3,0.1H7.3c-0.1,0-0.2,0-0.3-0.1C7,15.7,7,15.7,7,15.8
			c0.1,3,1.1,5.8,2.8,8V25.2L9.9,25.2z M10.4,1.4C8.6,2.9,7.8,5.3,5.1,7C6.4,1.8,9.2,2.4,10.4,1.4L10.4,1.4L10.4,1.4z M9.9,32.5
			c-3-0.4-4.6-2.2-5.2-3.3l0.1-0.1c1.7,1.6,2.8,1.6,5.2,1.8V32.5L9.9,32.5z M6.2,3.5C4.6,4.8,5.1,6,3.8,9.5v0.1
			c1.4-2.7,3.5-2.6,4.5-4.8h0.1C7.5,7.2,7.4,7.4,6.4,8.3c-1.5,1.3-2.6,2-3.2,3.1V7.9C3.1,5.8,4.4,3.9,6.2,3.5L6.2,3.5L6.2,3.5z
			 M9.9,30.3l-2.1-0.5c-2.7-0.6-5.6-2.7-6.3-6l0.1-0.1c0.8,1.7,2.1,2.4,4.7,3.7c1.3,0.6,2.6,1.8,3,2l0.1-0.1c-1.2-1-1.9-1.9-2.1-3.1
			c-0.3-1.5-0.8-3.6-1-4.3l0.1-0.1c1.3,1.9,1.7,2.4,2.1,3.6c0.7,1.8,1.1,2.9,1.5,3.6L9.9,30.3L9.9,30.3L9.9,30.3z M2.6,14.2
			C2.8,12.9,3,12,4.4,10.8c1.5-1.3,1.7-1.5,2-2.2h0.1c-0.1,0.6-0.6,2.2-1.2,3.2c-2.3,3.2-2.6,3.6-2.7,4.8H2.5
			c-0.5-2.2-1.4-3.8-1.4-5.6c0-1.6,0.4-3.1,1.8-4.9H3C2.8,6.7,2.4,7.3,2.4,8c0,2.1,0.2,3.4,0.2,4.4C2.6,13.2,2.6,13.7,2.6,14.2
			L2.6,14.2L2.6,14.2L2.6,14.2z M0.7,11.7c0,0.6-0.1,0.9-0.1,1.6c0,1.3,1.6,3.8,2.2,6.7h0.1c0-0.1-0.3-1.1-0.3-1.5
			c0-2.5,1.9-4,2.3-5.8H5c0.2,2.4-1.5,6.7-1.5,7.8c0,0.4,0,1,0.1,1.5h0c-1.7-2.8-3.5-3.4-3.5-7.4C0.1,13.8,0.5,12.3,0.7,11.7
			L0.7,11.7L0.7,11.7z M4.8,17.7c0.6,1.4,0.7,2.3,0.9,4.6c0.3,2.5,0.4,3.5,1.1,4.9L3,24.6c-1.3-0.8-3-3.3-3-5.6c0-0.4,0.1-0.7,0.1-1
			c0.4,2.8,2.7,3.4,5,7.1l0.1-0.1c-0.4-0.8-1-2.1-1-2.9C4.2,20.7,4.8,19.9,4.8,17.7L4.8,17.7L4.8,17.7z"/>
		<path style="clip-path:url(#SVGID_00000116203553082013956570000003329718918063134859_);fill:#009EDB;" d="M18.9,17.3h-0.1
			l-0.1-0.1h-0.1c-0.1,0.2-0.2,0.3-0.5,0.7L18.9,17.3L18.9,17.3z M18.1,19.2c-0.1,0.1-0.2,0.2-0.3,0.2c0.1,0.1,0.2,0.1,0.2,0.2
			c0.7,0.6,1.7,1,2.6,1.2c0.1-0.3,0.1-0.8,0.3-0.8c0.4,0,0.4,0,0.4-0.2c0-0.1-0.3-0.3-0.3-0.4c0-0.2,0.1-0.2,0.1-0.3
			c-0.1-0.1-0.1-0.2-0.1-0.3c0-0.1,0.1-0.2,0.1-0.3c-0.1,0.1-0.2,0.1-0.3,0.1c-0.5-0.1-1-0.3-1.4-0.6c-0.1-0.1-0.2-0.2-0.3-0.3
			c0,0.1-0.1,0.3-0.2,0.4L18.1,19.2L18.1,19.2z M21.1,10.1c0-0.1,0-0.2,0.1-0.3C21,9.8,21,9.9,20.8,9.9c-1.1,0.2-2.1,0.7-2.9,1.3
			l-0.3,0.2l0.2-0.1c0.2,0,0.6,0.4,0.8,0.5v0.1l-0.2,0.1V12c0.2,0.2,0.2,0.2,0.3,0.2c0-0.1,0.1-0.2,0.2-0.2c0,0,0.1,0,0.3,0.2h0.3
			l0.2,0.1c0.2-0.1,0.5-0.2,0.6-0.5c0.1-0.4,0.1-0.4,0.3-0.6c0,0.1,0.1,0.3,0.2,0.3c0.1,0,0.2-0.1,0.3-0.1c0.1,0,0.2,0.1,0.2,0.1
			c-0.1-0.1-0.1-0.2-0.1-0.2L21.1,10.1L21.1,10.1L21.1,10.1z M18.1,18c0,0-0.2-0.8-0.2-0.8c-0.1,0,0,0.3,0,0.4l-0.1,0.1
			c-0.1-0.1-0.4-0.3-0.4-0.3c-0.1-0.1-0.1-0.1-0.1-0.3l-0.2-0.2C17,17,17,17,16.9,17c-0.1-0.3-0.4-0.4-0.9-0.4
			c0.1,0.1,0.2,0.3,0.3,0.5c0.2,0.5,0.5,1.1,0.8,1.5c0.1,0.1,0.1,0.1,0.2,0.3c0.1-0.2,0.1-0.2,0.2-0.3L18.1,18L18.1,18z M21.1,7.2
			c0-0.1,0-0.2,0.1-0.3C21,7,20.8,7,20.7,7c-1.8,0.2-3.4,0.9-4.7,1.9C16,9,15.9,9,15.8,9.1C15.9,9.1,16,9.2,16,9.2l1.2,1.2
			c0.1,0.1,0.1,0.1,0.2,0.2c0.1-0.1,0.1-0.2,0.2-0.3c0.9-0.8,2-1.2,3.2-1.4C21,9,21,9,21.1,9.1c0-0.1-0.1-0.2-0.1-0.3V7.2L21.1,7.2z
			 M16,21.1c-0.1,0.1-0.2,0.2-0.3,0.2c0.1,0,0.2,0.1,0.3,0.2c1,0.9,2.3,1.6,3.6,1.9c0.4,0.1,0.9,0.2,1.1,0.2
			c-0.2-0.1-0.3-0.2-0.4-0.2L20,23.4c-0.5-0.2-0.6-0.7-0.9-1.1c-0.1-0.2,0.3-0.2,0.4-0.6c0.1-0.4,0.5-0.4,0.8-0.5
			c-0.3,0.1-0.4,0.1-0.6,0c-0.9-0.3-1.6-0.7-2.3-1.2c-0.1-0.1-0.2-0.1-0.2-0.2c-0.1,0.1-0.2,0.2-0.2,0.3L16,21.1L16,21.1z
			 M16.5,19.5c0.1-0.1,0.2-0.2,0.3-0.2c-0.2-0.1-0.3-0.2-0.3-0.2c-0.6-0.8-1-1.8-1.2-2.7l-0.2,0.1c0,0,0,0-0.1-0.1
			c-0.1,0.1-0.2,0.7-0.2,0.8c-0.1,0.1-0.2-0.1-0.2-0.3c-0.2,0-0.3-0.1-0.2-0.2c0.2,0.1,0.3,0.1,0.3-0.3c0-0.2-0.1-0.3-0.1-0.5
			c0-0.1,0.1-0.1,0.1-0.1c0.1,0,0.2,0.3,0.4,0.3c0.3,0,0.4-0.3,0.4-0.5l-0.1-0.1c0-0.2,0.1-0.3,0.1-0.5c0-0.3-0.2-0.6-0.5-0.6
			c-0.2,0-0.5,0.1-0.5,0.3c0,0.2,0.2,0.6,0.2,0.7c0,0.1-0.1,0.2-0.2,0.2h-0.4c-0.1,0.1-0.1,0.2-0.1,0.5c-0.5,0.2-0.6,0.2-0.6,0.3
			v0.1c0.1,0.3,0.1,0.3,0.1,0.6c0.5,0.6,0.6,0.7,0.6,1.3c0.2,0.4,0.2,0.5,0.3,1.3c0,0.2,0.1,0.2,0.3,0.6l-0.1,0.4
			c0,0.1,0,0.1-0.3,0.3c-0.1,0.1-0.1,0.3,0,0.4L16.5,19.5L16.5,19.5z M21.1,4.1c0-0.1,0-0.2,0.1-0.3C21,3.9,21,3.9,20.8,3.9
			c-2.7,0.2-5.1,1.3-6.9,2.9C13.9,6.9,13.8,7,13.7,7c0.1,0,0.2,0.1,0.3,0.2l1.3,1.3c0.1,0.1,0.1,0.1,0.2,0.3
			c0.1-0.2,0.2-0.3,0.2-0.3c1.4-1.2,3.2-2,5.3-2.2c0.1,0,0.1,0,0.3,0.1c-0.1-0.1-0.1-0.2-0.1-0.3V4.1L21.1,4.1z M21.1,24.7
			c0-0.1,0-0.3,0.1-0.3c-0.1,0.1-0.2,0.1-0.4,0.1c-2.1-0.3-4.1-1.2-5.5-2.5c0.5,0.6,0.6,0.6,0.6,0.7c0,0.2,0.4,0.3,0.4,0.5
			c0,0.3-0.3,0.3-0.6,0.3c-0.2,0.1-0.3,0.1-0.5,0.1c-0.3,0.2-0.7,0.3-0.9,0.3c-0.3,0-0.7-0.3-0.9-0.3c0.3,0.1,0.7,0.4,0.8,0.5
			c1.8,1.5,4.1,2.5,6.5,2.6c0.2,0,0.4,0,0.5,0.1c-0.1-0.2-0.1-0.3-0.1-0.4V24.7L21.1,24.7z M13.4,15.6c-0.1,0-0.2-0.1-0.3-0.1
			c0,0.1,0.1,0.2,0.1,0.4c0,0.1,0.1,0.8,0.1,1c0,0.2-0.1,0.2-0.1,0.3c0.2-0.3,0.4-0.2,0.4-0.4c0-0.1-0.1-0.3-0.1-0.4
			c0-0.1,0.2-0.3,0.2-0.4c0.1-0.1,0.1-0.2,0.1-0.3c0.2-0.1,0.3-0.1,0.3-0.2c-0.1,0-0.2,0.1-0.4,0.1L13.4,15.6L13.4,15.6L13.4,15.6z
			 M13.7,14.8c0.2,0,0.3,0.1,0.3,0.1l-0.1-0.5c-0.1-0.1-0.1-0.4,0-0.5c0.1-0.1,0.2-0.2,0.3-0.3c0.1-0.1,0.1-0.3,0.1-0.4
			c0.1-0.1,0.3-0.2,0.3-0.2c0.6-0.1,0.6-0.1,0.5-0.4c0.2-0.1,0.2-0.1,0.6-0.3c0.4-0.4,0.4-0.5,0.9-0.7c0.3-0.4,0.4-0.5,0.5-0.6
			c-0.1,0-0.2-0.1-0.3-0.2l-1.2-1.2c-0.1-0.1-0.1-0.2-0.2-0.3c-0.1,0.1-0.1,0.2-0.2,0.3c-1.3,1.3-2,3.8-2,4.6c0,0.2,0,0.3-0.1,0.4
			c0.2-0.1,0.2-0.1,0.3-0.1L13.7,14.8L13.7,14.8L13.7,14.8z M21.1,1c0-0.1,0-0.2,0.1-0.3c-0.2,0.1-0.2,0.1-0.3,0.1
			c-3.5,0.3-6.7,1.6-9.1,3.8c-0.1,0.1-0.2,0.2-0.3,0.2c0.1,0.1,0.2,0.1,0.3,0.2L13,6.2c0.1,0.1,0.2,0.2,0.2,0.3
			c0.1-0.2,0.2-0.3,0.2-0.3c2.1-1.8,4.6-2.8,7.5-3.1c0.1,0,0.1,0,0.3,0.1C21.1,3,21.1,3,21.1,2.9V1L21.1,1z M21.1,27.7
			c0-0.1,0-0.3,0.1-0.4c-0.1,0.1-0.2,0.1-0.4,0.1c-2.8-0.2-5.4-1.3-7.5-3.1c-0.1-0.1-0.2-0.2-0.2-0.3c-0.1,0.2-0.1,0.3-0.2,0.3
			l-1.2,1.2c-0.1,0.1-0.2,0.2-0.3,0.2c0.2,0.1,0.2,0.1,0.3,0.2c2.4,2.2,5.6,3.6,8.9,3.7c0.2,0,0.4,0,0.5,0.1
			c-0.1-0.1-0.1-0.3-0.1-0.4V27.7L21.1,27.7z M10.4,15.6c-0.2,0-0.2,0-0.3-0.1c0,0.1,0.1,0.2,0.1,0.3c0.1,0.8,0.2,1.5,0.3,2.3
			c0.1,0.3,0.1,0.5,0.2,0.7c0-0.2,0.1-0.3,0.1-0.3c0.1-0.1,0.2,0,0.2-0.1c0.1-0.1,0-0.1-0.1-0.3c0.2-0.1,0-0.3,0.1-0.4
			c0.1-0.3,0.2-0.5,0.3-0.6c0.1,0,0.3-0.1,0.6-0.3c0.2-0.1,0.2-0.4,0.4-0.4c0.2,0,0.2,0.1,0.4,0.4c-0.1-0.2-0.1-0.3-0.1-0.4
			c-0.1-0.4-0.1-0.8,0-0.9c-0.1,0-0.1,0.1-0.3,0.1L10.4,15.6L10.4,15.6L10.4,15.6z M13.4,7.7c-0.1-0.1-0.2-0.2-0.2-0.3
			c-0.1,0.2-0.1,0.2-0.2,0.3c-1.7,1.8-2.7,4.4-2.9,6.7c0,0.1,0,0.2-0.1,0.4c0.1-0.1,0.2-0.1,0.3-0.1h1.8c0.1,0,0.2,0,0.3,0.1
			c-0.1-0.1-0.1-0.2-0.1-0.4c0.2-1.9,1-3.7,2.2-5.2c0.1-0.1,0.2-0.2,0.3-0.2C14.7,9.1,14.7,9,14.6,9L13.4,7.7L13.4,7.7z M15.8,35.6
			c1.6-1.8,3.5-2.7,4.8-3.4C20.4,32.1,20.2,32,20,32c-1,0-1.7,0.5-2.8,1.2c-2.2,1.3-2.9,1.7-4.5,1.7c-0.9,0-1.9-0.3-2.8-0.8v-0.7
			c0.4,0.1,0.9,0.2,1.3,0.2c1.2,0,1.9-0.3,4.1-1.1c1.9-0.7,2.7-1,3.6-1c0.9,0,2.2,0.4,2.6,0.5v0.5c-1.3,0.5-3.4,2.1-4.9,3.9
			L15.8,35.6L15.8,35.6z M9.9,29.1c0.4,0.6,0.7,1,1.1,1.4l-1.1-0.3V29.1L9.9,29.1z M9.9,30.9c0.1,0,0.3,0.1,0.4,0.1
			c1.3,0.1,1.8,0.2,3.5,0.5v-0.1c-1-0.3-1.7-0.7-2.2-1.1c-0.7-0.6-1-1.3-1.7-2.5V27c1.2,1,2.3,2.1,3.4,3.1c1,0.9,1.8,1.1,3.1,1.4
			c-3.9,1-4.4,1.1-5.5,1.1c-0.4,0-0.8-0.1-1.1-0.1V30.9L9.9,30.9z M21.5,20.5c-0.1,0-0.5,0.3-0.6,0.3c0,0.2,0.3,0.2,0.6,0.2v9.6
			c-4.7,0-8.9-2.1-11.6-5.3v-1.4c0.3,0.4,0.5,0.7,0.8,1c0.1,0.1,0.2,0.3,0.2,0.4c0.1-0.2,0.2-0.3,0.3-0.4l1.1-1.1
			c0.1-0.1,0.2-0.2,0.4-0.3c-0.2-0.1-0.2-0.2-0.3-0.3c-0.2-0.2-0.2-0.2-0.3-0.4h-0.1c-0.1-0.1-0.4-0.3-0.5-0.3
			c-0.1-0.1-0.2-0.3-0.3-0.5c-0.1,0.1-0.2,0.1-0.2,0.1c-0.3,0-0.6-0.3-0.7-0.8c-0.1,0-0.4-0.1-0.5-0.2v-9.6c0.5-1.6,1.4-3.2,2.6-4.5
			C12.5,7.1,12.6,7,12.7,7c-0.2-0.1-0.3-0.2-0.3-0.3l-1.2-1.2C11.1,5.4,11,5.3,11,5.2c-0.1,0.2-0.1,0.2-0.2,0.3
			c-0.4,0.4-0.7,0.8-1,1.2V5.3c2.8-3.2,7-5.3,11.6-5.3v12.6c-0.4,0-0.5,0.1-0.6,0.1c0.1,0.2,0.1,0.4,0.1,0.6c0,0.2-0.7,0.5-0.9,0.5
			c0,0.1-0.1,0.2-0.1,0.3c-0.2,0.1-0.4,0.2-0.5,0.4v0.2c-0.1,0.2-0.1,0.4-0.2,0.6v0.3c-0.1,0.1-0.1,0.1-0.2,0.1
			c-0.1,0-0.1-0.5-0.3-0.5h-0.1l-0.1,0.1c-0.1,0-0.2-0.1-0.3-0.1c-0.3,0.3-0.3,0.4-0.3,0.6c-0.2,0.1-0.3,0.2-0.3,0.2
			c0.2,0.1,0.8-0.1,1-0.1c0.1-0.1,0.2-0.1,0.2-0.1c0.1,0,0.2,0.1,0.2,0.2c0.1,0,0.2-0.1,0.2-0.1c0.2-0.2,0.1-0.3,0.2-0.4
			c0.2-0.1,0.2,0.2,0.3,0.2c-0.3,0.6-0.3,0.6-0.4,0.8c-0.1,0.1-0.1,0.1-0.3,0v-0.1h-0.1c-0.1,0.1,0,0.1,0.2,0.4
			c0.1-0.1,0.1-0.1,0.2-0.4c0.4-0.2,0.4-0.2,0.4-0.4c0-0.4,0.1-0.4,0.7-0.4c0.3,0,0.5,0,0.5,0.3L21.2,16c0,0,0.1,0.1,0.1,0.2
			c0,0.1-0.3,0.4-0.3,0.4c0,0.6-0.7,0.7-1.2,0.7c0.4,0.4,1,0.6,1.6,0.6L21.5,20.5L21.5,20.5L21.5,20.5z"/>
		<path style="clip-path:url(#SVGID_00000116203553082013956570000003329718918063134859_);fill:#009EDB;" d="M28.6,15.6
			c0.3,0.3,0.3,0.4,0.4,0.7c0.4,0.4,0.5,0.4,0.7,0.9c0.1-0.5,0.2-0.8,0.2-1.2c0-0.3,0.1-0.4,0.1-0.4c-0.1,0.1-0.3,0.1-0.3,0.1
			L28.6,15.6L28.6,15.6L28.6,15.6z M28.4,3.9c0,0,0.1,0,0.2,0.1c0.2-0.1,0.3-0.1,0.5,0.1c0.1,0.1,0.1,0.2,0.1,0.3
			c0,0.1,0.1,0.1,0.1,0.2c0,0.1-0.1,0.1-0.2,0.1c-0.2,0-0.2-0.2-0.4-0.3c-0.2-0.2-0.4-0.2-0.4-0.3C28.3,3.9,28.4,3.9,28.4,3.9
			L28.4,3.9z M27.8,22.2c-0.1-0.1-0.2-0.2-0.2-0.3c-0.1,0.3-0.3,0.6-0.3,0.7c0,0.1,0.1,0.2,0.2,0.3c0.2,0.2,0.4,0.2,0.5,0.3
			c0.1,0.1,0.3,0.2,0.3,0.3c0,0.1-0.1,0.2-0.1,0.3c-0.2,0.3-0.4,0.4-0.4,0.6c0,0.1,0.2,0.1,0.2,0.2c0.1,0.1,0,0.3-0.1,0.4
			c0.5-0.4,0.8-0.6,1-0.9c0.1-0.1,0.2-0.2,0.3-0.3c-0.3,0-0.4-0.1-0.4-0.3L27.8,22.2L27.8,22.2z M30.1,31.1
			c-0.3,0.1-0.6,0.2-0.9,0.3v0.1c0.4-0.1,0.8-0.2,0.9-0.2v1.1c-0.6-0.2-1.7-0.4-3.5-0.9c1.3-0.3,2.1-0.5,3.1-1.4
			c0.2-0.1,0.3-0.3,0.4-0.4L30.1,31.1L30.1,31.1L30.1,31.1z M25.3,11.8c0.2,0.2,0.2,0.2,0.3,0.3l0.2-0.5c0-0.1,0.2-0.2,0.3-0.2
			c0.2,0,0.5,0.1,0.6,0.1c0.2-0.1,0.9,0,1.1,0.2l0.4,0.7c0,0.1,0,0.1-0.1,0.2c0.1,0.1,0.1,0.2,0.1,0.2c0.2-0.2,0.3-0.3,0.5-0.3
			c0.2,0,0.3,0.1,0.3,0.2c0.3,0.3,0.3,0.3,0.4,0.3c0,0.2,0,0.2-0.2,0.3c0,0.1-0.2,0.5-0.2,0.6l0.1,0.1c0.4,0.1,0.7-0.7,0.7-0.7
			c0-0.1-0.3-0.9-0.4-1.1c-0.2-0.2-0.8-0.6-0.9-0.7c0.1-0.1,0.2-0.4,0.2-0.5c0-0.2-0.8-1.1-0.9-1.2c-0.1-0.1-0.1-0.2-0.2-0.3
			c0,0.1-0.1,0.2-0.2,0.3L25.3,11.8L25.3,11.8z M28.9,17.7c-0.1,0.1-0.2,0.2-0.4,0.2c-0.2,0-0.3-0.1-0.4-0.1
			c-0.1,0.2-0.1,0.4-0.3,0.4c-0.2,0-0.2-0.2-0.2-0.3h-0.1c0,0.1-0.4,0.6-0.6,0.7c-0.3,0.1-0.3,0.1-0.5,0.4c-0.3,0.1-0.5,0.1-0.5,0.2
			c0,0.1,0.1,0.1,0.2,0.1c0,0,0.5-0.2,0.5-0.2c0.1-0.3,0.1-0.3,0.3-0.3c0.2-0.1,0.5-0.1,0.5,0.3c0,0.4-0.2,0.9-0.3,1.2
			c0,0.1-0.2,0.5-0.2,0.6c-0.2,0.1-0.3,0.1-0.3,0.1c-0.1,0-1.6-0.5-1.9-0.5c-0.1,0-0.2,0-0.2,0.2c0,0.1,0.5,0.2,0.7,0.3
			c0.1,0,0.7,0.4,0.9,0.4c0,0,0.9-0.1,1-0.2c0.1-0.1,0.3-0.8,0.5-0.8c0.1,0,0.1,0.3,0.2,0.5c0.8-0.9,1.4-1.9,1.7-3H28.9L28.9,17.7z
			 M25.3,18.7c0.1,0,0.2-0.1,0.2-0.2c0-0.4-0.4-0.5-0.6-0.6c0.1-0.3-0.2-0.2-0.3-0.2c-0.1,0.1-0.1,0.5,0.4,0.6
			C25.1,18.5,25.1,18.7,25.3,18.7L25.3,18.7z M23.7,19.4c0.1,0,0.6-0.3,0.6-0.5C24.1,18.9,23.7,19,23.7,19.4L23.7,19.4L23.7,19.4z
			 M23.1,2.9c-0.4,0-0.7-0.2-0.8-0.4c0.1-0.2,0.1-0.2,0.3-0.1c0.2-0.1,1.1-0.4,1.2-0.4c0.2,0,0.8,0,1.1,0.4
			c-0.1,0.1-0.2,0.4-0.5,0.4c-0.7,0-0.8,0-1.3,0.1H23.1L23.1,2.9z M21.9,11.6c0.2,0,0.5,0,0.6,0.1c0.1-0.1,0.4-0.4,0.6-0.5
			c0.1-0.1,0.2-0.2,0.2-0.2c0.2,0,0.2,0.1,0.2,0.3c0,0.3-0.2,0.6-0.4,0.8c-0.1,0.1-0.8,0.3-0.7,0.4c0.1,0.1,0.2-0.1,0.4-0.1
			c0.2,0,0.5,0.4,0.6,0.4c0.2,0,0.2-0.1,0.3-0.1c0.1-0.3,0.1-0.3,0.3-0.5c0.1-0.1,0.6-0.4,0.7-0.5l0.3-0.3c0,0-0.3,0-0.3-0.1
			c0-0.2,0.1-0.2,0.2-0.2c0.1-0.1,0.1-0.1,0.2-0.1c-0.1,0-0.2-0.1-0.3-0.1c-0.7-0.7-1.6-1-2.7-1.1c-0.1,0-0.2-0.1-0.3-0.1
			c0.1,0.2,0.1,0.3,0.1,0.3L21.9,11.6L21.9,11.6L21.9,11.6z M21.9,8.7c0,0.1,0,0.3-0.1,0.4c0.1-0.1,0.2-0.1,0.3-0.1
			c1.2,0.2,2.2,0.6,3.1,1.3c0.1,0.1,0.2,0.2,0.2,0.3c0.1-0.2,0.2-0.2,0.3-0.3l1.1-1.1c0.1-0.1,0.2-0.2,0.3-0.2
			C27,9,26.8,8.9,26.8,8.9c-1.2-1-2.9-1.7-4.6-1.9c-0.2,0-0.3-0.1-0.4-0.1c0.1,0.1,0.1,0.3,0.1,0.4V8.7L21.9,8.7z M21.9,26.3
			c0,0.2,0,0.3-0.1,0.4c0.1-0.1,0.3-0.1,0.5-0.1c0.3,0,0.8-0.1,1.5-0.2c-0.5-0.2-1.1-0.5-1.1-1c0-0.2,0.2-0.3,0.2-0.5
			c0-0.2-0.6-0.2-0.8-0.2c-0.2-0.1-0.3-0.3-0.4-0.4c0,0.1,0.1,0.2,0.1,0.3L21.9,26.3L21.9,26.3L21.9,26.3z M30.1,34.9
			c-1.5-0.1-2.2-0.4-4.3-1.7C24.6,32.5,24,32,23,32c-0.3,0-0.5,0.1-0.7,0.1c1.3,0.8,3.2,1.7,4.9,3.4l-0.9,0.8
			c-1.5-1.8-3.5-3.4-4.9-3.9v-0.5c0.5-0.1,1.8-0.5,2.6-0.5c0.9,0,1.7,0.4,3.6,1c1.1,0.4,1.8,0.7,2.4,0.9V34.9L30.1,34.9z M21.9,5.8
			c0,0.1,0,0.3-0.1,0.4c0.1-0.1,0.2-0.1,0.3-0.1c1.7,0.1,3.3,0.7,4.7,1.8c-0.1-0.2-0.1-0.3-0.1-0.3l0.1-0.1
			c-0.2-0.1-0.2-0.1-0.3-0.3c0.1,0,0.1-0.1,0.1-0.1c-0.2-0.4-0.3-0.4-0.3-0.5c0.1-0.1,0.1-0.1,0.2-0.1c0.1,0,0.7,0.8,0.7,0.8
			c0.4,0,0.5,0.1,0.7,1c0.5,0.6,0.5,0.7,0.5,0.9C28.6,9.2,29,9.7,29,10c0,0.1,0.1,0.1,0.2,0.1c0,0,0.3-0.1,0.4-0.1
			c0.1,0,0.2,0.1,0.2,0.2c0,0.1-0.2,0.4-0.2,0.4h0.3c0.1,0.2,0.1,0.3-0.1,0.4c0,0.1,0,0.2,0.1,0.2c0.2,0.1,0.2,0.1,0.3,0.2v1.9
			c-0.2,0.2-0.5,0.9-0.6,1c-0.4,0.1-0.4,0.1-0.4,0.3c0,0.1,0,0.1,0.1,0.2c-0.1,0.1-0.2,0.1-0.3,0.2h0.6c0.2,0,0.3,0.1,0.3,0.1
			c-0.1-0.3,0.1-0.6,0.1-0.9c0.1-0.1,0.1-0.2,0.1-0.3v4.8c-0.3,0.9-0.9,1.9-1.7,2.7c-0.1,0.1-0.2,0.2-0.3,0.2
			c0.2,0.1,0.3,0.2,0.4,0.3l0.6,0.6c0.1-0.3,0-0.4,0.2-0.4c0.4,0,0.5,0.6,0.5,1.2c0.1-0.2,0.2-0.3,0.3-0.5v1.8
			c-0.2-0.2-0.2-0.3-0.3-0.4c-0.1,0.1-0.1,0.2-0.3,0.3c-0.6,0.6-1.3,1.1-2.1,1.5c-0.2,0.6-0.3,0.7-0.4,0.7c-0.1,0.2-0.2,0.3-0.3,0.4
			c-0.1,0.2-0.2,0.3-0.4,0.3c-0.1,0.1-0.3,0.2-0.5,0.3c-0.1,0.1-0.2,0.3-0.5,0.3c-0.6,0-0.5-0.3-1.2-0.8c-0.6,0.2-1.4,0.3-2.1,0.3
			c-0.2,0-0.3,0-0.4-0.1c0.1,0.1,0.1,0.3,0.1,0.4v1.7c0,0.1,0,0.3-0.1,0.4c0.1-0.1,0.3-0.1,0.5-0.1c2.8-0.1,5.5-1.1,7.7-2.8L30,27.9
			c-2.5,1.7-5.4,2.6-8.7,2.6V21c0.1,0.1,0.2,0.1,0.3,0c0.1,0,0.8-0.2,0.8-0.2c0.1,0.3,0.1,0.3,0.2,0.3c0.2,0.1,0.5,0.1,0.6,0.1
			c0.1,0,0.3-0.4,0.3-0.4c0.4-0.1,1.2-0.4,1.2-0.9c0-0.2-0.2-0.2-0.2-0.2C24.4,19.8,24.1,20,24,20c-0.1,0-0.4-0.1-0.4-0.1
			c0.1,0.1,0.1,0.1,0,0.3c-0.2,0.1-0.2,0.1-0.3,0.1c-0.2-0.2-0.2-0.2-0.3-0.2L23,20.3c-0.1,0-0.7-0.4-0.8-0.4
			c-0.3,0.1-0.3,0.1-0.4,0.2l-0.5,0.4v-2.6c0.1,0,0.3-0.1,0.4-0.1c0.2,0,0.3-0.3,0.4-0.7c0.1-0.2,0.1-0.3,0.2-0.3
			c0.2,0,0.6,0.1,0.6,0.1c0.2-0.1,0.2-0.5,0.2-0.7c0-0.1-0.2-0.2-0.2-0.3c0-0.4,0.1-0.6-0.1-0.8c-0.1-0.1-0.3,0-0.3-0.2
			c0-0.1,0.1-0.2,0.2-0.3c0,0,0.1-0.1,0.1-0.2c0-0.1-0.1-0.4-0.1-0.5c-0.2-0.1-0.2,0-0.3-0.1c-0.1-0.1-0.1-0.3-0.2-0.4
			c-0.1,0-0.2-0.1-0.2-0.2c-0.3,0.1-0.4-0.1-0.6-0.1c-0.2,0-0.3-0.5-0.1-0.5c0.3,0,0.4,0.1,0.4-0.1c0-0.1-0.3-0.2-0.5-0.2V0
			c3.2,0,6.2,1,8.7,2.6v1.1c-2.2-1.6-4.9-2.7-7.8-2.9c-0.1,0-0.3,0-0.4-0.1c0.1,0.1,0.1,0.2,0.1,0.4v1.6c0,0.1,0,0.2-0.1,0.3
			c0.2-0.2,0.3-0.3,0.3-0.2c0.2,0.1,0.1,0.3-0.1,0.4c0.1,0,0.1-0.1,0.3-0.1c1.6,0.1,3.3,0.6,4.7,1.3c0.3-0.1,0.5-0.2,0.8-0.2
			c0.1,0,0.6,0.2,0.7,0.1c0.3,0,0.5,0.7,0.9,0.8c0.2,0.1,0.1,0.6,0.4,0.7c0.1,0,0.2,0.1,0.3,0.3v3.4c-0.2-0.2-0.4-0.3-0.5-0.4
			c-0.1-0.1-0.2-0.2-0.2-0.4l-0.7-0.3c-0.1-0.2-0.1-0.9-0.2-1c-0.1-0.2-0.3-0.5-0.4-0.5c-0.1,0-0.4,0.1-0.5,0.1
			c-0.2-0.3-0.4-0.6-0.4-0.9c-0.2-0.2-0.2-0.3-0.3-0.7c-0.1-0.1-0.3-0.3-0.4-0.5c-1.3-0.7-2.9-1.1-4.4-1.3c-0.2,0-0.3,0-0.4-0.1
			c0.1,0.2,0.1,0.3,0.1,0.4L21.9,5.8L21.9,5.8L21.9,5.8z"/>
	</g>
	<path class="st1" d="M42.4,11.7c0.2,0.6,0.6,2,0.6,2.9c0,4-1.8,4.7-3.5,7.4h-0.1c0.1-0.6,0.1-1.1,0.1-1.5c0-1.1-1.7-5.4-1.6-7.8H38
		c0.4,1.7,2.3,3.3,2.3,5.8c0,0.4-0.2,1.4-0.2,1.5h0.1c0.6-2.9,2.2-5.5,2.2-6.7C42.4,12.6,42.4,12.3,42.4,11.7L42.4,11.7L42.4,11.7z
		 M40.5,14.2c-0.1-0.5-0.2-1-0.2-1.8c0-1,0.3-2.3,0.3-4.4c0-0.7-0.4-1.3-0.6-1.8h0.1C41.5,8,42,9.5,42,11.1c0,1.8-0.9,3.4-1.4,5.6
		h-0.1c-0.2-1.2-0.4-1.6-2.7-4.8c-0.7-1-1.2-2.6-1.3-3.2h0.1c0.4,0.7,0.5,0.9,2,2.2C40,12,40.2,12.9,40.5,14.2L40.5,14.2L40.5,14.2
		L40.5,14.2z M38.3,17.7c0,2.3,0.5,3.1,0.5,4.5c0,0.8-0.5,2.1-0.9,2.9l0.1,0.1c2.3-3.7,4.5-4.3,5-7.1c0.1,0.3,0.1,0.6,0.1,1
		c0,2.3-1.8,4.9-3,5.6l-3.8,2.5c0.8-1.3,0.8-2.3,1.1-4.9C37.5,20,37.7,19.1,38.3,17.7L38.3,17.7L38.3,17.7z M37,3.4
		c1.8,0.5,3,2.4,3,4.5v3.5c-0.7-1.2-1.8-1.9-3.2-3.1c-1-0.9-1.2-1.1-1.9-3.5h0.1c0.9,2.2,3.1,2,4.5,4.8V9.5C38.1,6,38.5,4.8,37,3.4
		L37,3.4L37,3.4L37,3.4z M32.7,1.4C33.9,2.4,36.6,1.8,38,7C35.3,5.3,34.4,2.9,32.7,1.4L32.7,1.4L32.7,1.4z M36.9,22
		c-0.3,0.7-0.7,2.8-0.9,4c-0.3,1.6-1,2.3-2.1,3.3l0.1,0.1c0.5-0.2,1.8-1.4,3-2c2.6-1.3,3.9-2,4.6-3.7l0.1,0.1
		c-0.7,3.3-3.6,5.5-6.3,6l-3.2,0.7c1.1-1,1.4-1.9,2.6-5C35.2,24.3,35.5,23.8,36.9,22L36.9,22L36.9,22z M34,15.6
		c-0.2,0-0.3,0-0.4-0.1c0.1,0.2,0.1,0.2,0.1,0.3c-0.1,2.8-1.2,5.5-3.1,7.5c-0.1,0.1-0.2,0.2-0.3,0.2c0.1,0.1,0.2,0.1,0.3,0.2
		l1.2,1.2c0.1,0.1,0.2,0.2,0.2,0.3c0.1-0.2,0.2-0.3,0.3-0.4c2.2-2.4,3.5-5.6,3.7-9.1c0-0.1,0-0.2,0.1-0.3c-0.2,0.1-0.3,0.1-0.4,0.1
		H34L34,15.6z M35.6,14.8c0.2,0,0.3,0,0.4,0.1c-0.1-0.1-0.1-0.3-0.1-0.4c-0.2-3.5-1.6-6.6-3.8-9c-0.1-0.1-0.2-0.2-0.2-0.3
		c0,0.1-0.1,0.2-0.2,0.3l-1.2,1.2c-0.1,0.1-0.2,0.2-0.3,0.2c0.1,0.1,0.2,0.1,0.3,0.2c1.8,2.1,2.9,4.6,3.1,7.4c0,0.1,0,0.2-0.1,0.4
		c0.2-0.1,0.3-0.1,0.4-0.1H35.6L35.6,14.8z M30.1,33.3c0.7,0.2,1.2,0.3,1.8,0.3c1,0,1.6-0.3,3-0.9v0.1c-1.4,1.5-3.1,2.2-4.6,2.2
		h-0.2V33.3L30.1,33.3z M30.1,31.3c1.2-0.2,1.7-0.2,2.6-0.3c2.6-0.3,3.7-0.2,5.6-1.9l0.1,0.1c-0.8,1.3-2.6,3.4-6.3,3.4
		c-0.6,0-1-0.1-2-0.3V31.3L30.1,31.3z M30.1,29.8c1.2-1.1,2.4-2.3,3.7-3.3l0.1,0.1c-1.2,2-1.5,3.1-2.4,3.8c-0.3,0.3-0.8,0.5-1.3,0.8
		V29.8L30.1,29.8z M30.1,11.2C30.1,11.2,30.1,11.2,30.1,11.2c0.1,0.2,0.3,0.5,0.3,0.7l-0.2,0.5c0,0,0.2,0.3,0.1,0.5
		c0,0.1-0.1,0.1-0.2,0.3V11.2L30.1,11.2z M30.1,6.1C30.1,6,30.1,6,30.2,5.9L31.1,5c0.1-0.1,0.3-0.2,0.4-0.2
		c-0.2-0.1-0.3-0.2-0.4-0.3c-0.4-0.3-0.7-0.6-1.1-0.8V2.6c4,2.7,6.7,7.4,6.7,12.7c0,5.3-2.7,9.9-6.7,12.6l0.1-1.1
		c0.3-0.2,0.7-0.6,1.1-0.9c0.1-0.1,0.2-0.2,0.3-0.2c-0.1-0.1-0.2-0.1-0.3-0.2l-1.1-1.1v-1.8c1.6-1.8,2.6-4.3,2.7-6.8
		c0-0.1,0-0.2,0.1-0.3c-0.1,0-0.2,0.1-0.3,0.1h-1.6c-0.2,0-0.2,0-0.4-0.1c0.1,0.2,0.1,0.3,0.1,0.4c0,0.3-0.1,0.7-0.2,1.2
		c0,0,0.1-0.1,0.2-0.1c0.2,0.2,0.3,0.3,0.3,0.4c0,0.1-0.1,0.3-0.4,0.2c-0.1,0.1-0.1,0.1-0.2,0.1c-0.1,0.2-0.2,0.4-0.3,0.8v-4.8
		c0.1-0.1,0.2-0.5,0.3-0.5c0.1-0.1,0.1-0.1,0.2-0.1c0.1,0.2-0.1,0.8-0.1,0.8c0.2,0.2,0.2,0.6,0.2,0.9c0.2-0.1,0.3-0.1,0.4-0.1h1.6
		c0.1,0,0.2,0,0.4,0.1c-0.1-0.2-0.1-0.3-0.1-0.4c-0.1-1.3-0.4-2.5-0.9-3.6c-0.1,0.1-0.3,0.1-0.3,0.1c-0.1,0-0.3-0.3-0.3-0.3
		c-0.6-0.9-0.7-0.9-1-0.9c-0.1-0.1-0.2-0.1-0.3-0.2V6.1L30.1,6.1z"/>
</g>
</svg>
