<?xml version="1.0" encoding="UTF-8"?>
<svg id="Layer_1" xmlns="http://www.w3.org/2000/svg" version="1.1" viewBox="0 0 84.06 84.04">
  <!-- Generator: Adobe Illustrator 29.8.1, SVG Export Plug-In . SVG Version: 2.1.1 Build 2)  -->
  <defs>
    <style>
      .st0 {
        fill: #3f8045;
      }

      .st1 {
        fill: #16496b;
      }

      .st2 {
        fill: #c7982e;
      }

      .st3 {
        fill: #1a96d4;
      }

      .st4 {
        fill: #e4b633;
      }

      .st5 {
        fill: #26bde2;
      }

      .st6 {
        fill: #f8c219;
      }

      .st7 {
        fill: #ee422a;
      }

      .st8 {
        fill: #f16b2d;
      }

      .st9 {
        fill: #dc1769;
      }

      .st10 {
        fill: #fff;
      }

      .st11 {
        fill: #60ba46;
      }

      .st12 {
        fill: #4ea046;
      }

      .st13 {
        fill: #086a9d;
      }

      .st14 {
        fill: #e6253e;
      }

      .st15 {
        fill: #a21c45;
      }

      .st16 {
        fill: #c4202f;
      }

      .st17 {
        fill: #f89f29;
      }
    </style>
  </defs>
  <rect class="st10" x=".22" y="6.71" width="83.38" height="72.43"/>
  <g>
    <path class="st11" d="M21.6,30.03c1.05-1.77,2.31-3.4,3.77-4.85l-12.35-13.54c-3.1,2.97-5.76,6.41-7.84,10.21l16.43,8.18Z"/>
    <path class="st4" d="M51.88,20.46c1.87.86,3.61,1.95,5.18,3.25l12.39-13.53c-3.26-2.81-6.96-5.13-10.98-6.85l-6.59,17.13Z"/>
    <path class="st16" d="M80.24,24.53l-16.42,8.18c.78,1.83,1.34,3.78,1.64,5.8l18.26-1.72c-.54-4.32-1.74-8.45-3.49-12.26"/>
    <path class="st12" d="M62.65,30.34l16.42-8.18c-2.03-3.78-4.63-7.21-7.67-10.19l-12.39,13.52c1.41,1.45,2.64,3.08,3.64,4.85"/>
    <path class="st0" d="M18.33,42.01c0-.37,0-.74.03-1.1L.09,39.27C.03,40.18,0,41.09,0,42.01,0,45.52.44,48.92,1.24,52.17l17.64-5.06c-.36-1.64-.55-3.35-.55-5.1"/>
    <path class="st6" d="M60.35,57.03c-1.3,1.58-2.8,2.99-4.46,4.19l9.65,15.62c3.58-2.42,6.76-5.39,9.44-8.77l-14.63-11.04Z"/>
    <path class="st7" d="M65.72,42.01c0,1.73-.18,3.42-.54,5.04l17.64,5.07c.8-3.24,1.23-6.62,1.23-10.11,0-.86-.03-1.72-.08-2.58l-18.27,1.72c.01.29.02.57.02.85"/>
    <path class="st17" d="M24,57.38l-14.6,11.1c2.72,3.34,5.93,6.26,9.53,8.64l9.64-15.6c-1.7-1.18-3.24-2.57-4.58-4.14"/>
    <path class="st3" d="M18.63,38.27c.33-2.06.93-4.04,1.75-5.88L3.96,24.21c-1.81,3.86-3.06,8.04-3.62,12.42l18.28,1.64Z"/>
    <path class="st15" d="M63.29,78.25l-9.63-15.6c-1.75.99-3.64,1.76-5.62,2.28l3.4,18.04c4.23-.97,8.22-2.58,11.85-4.73"/>
    <path class="st5" d="M64.48,49.61c-.64,1.87-1.5,3.65-2.56,5.28l14.65,11.05c2.38-3.42,4.26-7.21,5.54-11.26l-17.63-5.06Z"/>
    <path class="st8" d="M45.45,65.46c-1.12.16-2.26.25-3.42.25-.93,0-1.85-.06-2.76-.16l-3.4,18.04c2.01.3,4.07.45,6.16.45,2.32,0,4.6-.19,6.81-.55l-3.39-18.02Z"/>
    <path class="st14" d="M43.54,18.36c2.04.13,4,.52,5.87,1.13l6.59-17.12C52.08.99,47.9.17,43.54.01v18.35Z"/>
    <path class="st9" d="M36.66,65.1c-2.05-.48-4.01-1.23-5.82-2.2l-9.65,15.61c3.71,2.12,7.77,3.7,12.07,4.61l3.39-18.02Z"/>
    <path class="st1" d="M34.91,19.41c1.9-.6,3.91-.96,5.99-1.06V0c-4.41.12-8.65.92-12.62,2.3l6.63,17.11Z"/>
    <path class="st2" d="M22.4,55.27c-1.16-1.72-2.11-3.6-2.8-5.6L1.97,54.72c1.34,4.2,3.31,8.12,5.82,11.64l14.6-11.1Z"/>
    <path class="st13" d="M27.34,23.42c1.55-1.23,3.26-2.26,5.08-3.07L25.8,3.25c-3.95,1.66-7.59,3.9-10.82,6.62l12.36,13.56Z"/>
  </g>
</svg>