<svg id="Layer_1" data-name="Layer 1" xmlns="http://www.w3.org/2000/svg" viewBox="0 0 256.39 146.26"><defs><style>.cls-1{fill:#f8aa09;}.cls-2{fill:#1e1e1c;}</style></defs><path class="cls-1" d="M286.63,320.05a10,10,0,0,1-13.69-3.51,9.88,9.88,0,0,1-.61-1.27l-9.67.07A10,10,0,0,1,251,322.12l-5.19,9.16c0,.09.11.17.16.25a10,10,0,1,1-5.81-4.51l4.9-8.64a10,10,0,0,1,.14-12.31l-5.53-9.4a10,10,0,1,1,6.27-3.58l5.48,9.33a10,10,0,0,1,10.27,4.8,10.88,10.88,0,0,1,.54,1.08l9.82-.08a10,10,0,1,1,14.53,11.83Z" transform="translate(-137.01 -276.78)"/><path class="cls-2" d="M167.88,405.23a37.39,37.39,0,0,1-6.15.63c-10.24,0-14.4-2.26-14.4-14.4V363l-8.51-1.27A1.92,1.92,0,0,1,137,360v-4.07a1.81,1.81,0,0,1,1.81-1.81h8.51v-7.43a1.94,1.94,0,0,1,1.81-1.81l8.42-1.45h.36a1.3,1.3,0,0,1,1.44,1.16,1.41,1.41,0,0,1,0,.2v9.33h8.15a1.84,1.84,0,0,1,1.81,1.81v5.34a1.82,1.82,0,0,1-1.81,1.81h-8.15v28.43c0,4.53.27,5.07,3.53,5.07h4.8c1.18,0,1.9.46,1.9,1.36v5.71C169.6,404.54,169,405.05,167.88,405.23Z" transform="translate(-137.01 -276.78)"/><path class="cls-2" d="M198.4,405.86a66.46,66.46,0,0,1-8.69-.63v16A1.82,1.82,0,0,1,187.9,423h-8.34a1.81,1.81,0,0,1-1.81-1.81v-63c0-1.36.37-1.9,2.45-2.44a77,77,0,0,1,18.2-2.36C213,353.43,220,362,220,376.16v7C220,397.26,213,405.86,198.4,405.86Zm9.69-29.7c0-7.42-1.91-13-9.69-13a52.64,52.64,0,0,0-8.69.64v31.6a74.21,74.21,0,0,0,8.69.63c7.78,0,9.69-5.52,9.69-13Z" transform="translate(-137.01 -276.78)"/><path class="cls-2" d="M240.41,405.13h-8.33a1.89,1.89,0,0,1-1.81-1.9V355.88a1.82,1.82,0,0,1,1.81-1.81h8.33a1.82,1.82,0,0,1,1.82,1.81v47.35A1.9,1.9,0,0,1,240.41,405.13Z" transform="translate(-137.01 -276.78)"/><path class="cls-2" d="M276.27,339.58H271.7v15.11a.43.43,0,0,1-.11.32.37.37,0,0,1-.3.14H270a.37.37,0,0,1-.3-.14.44.44,0,0,1-.13-.32V339.58h-4.55a.58.58,0,0,1-.32-.1.3.3,0,0,1-.15-.28v-1a.33.33,0,0,1,.15-.3.42.42,0,0,1,.32-.11h11.26c.3,0,.45.13.45.41v1C276.73,339.45,276.57,339.58,276.27,339.58Z" transform="translate(-137.01 -276.78)"/><path class="cls-2" d="M291.21,355a.43.43,0,0,1-.32.14h-1.25a.58.58,0,0,1-.33-.14.43.43,0,0,1-.14-.32v-7.75h-8v7.75a.44.44,0,0,1-.15.32.47.47,0,0,1-.33.14h-1.25a.43.43,0,0,1-.32-.14.41.41,0,0,1-.15-.32V338.24a.41.41,0,0,1,.15-.33.42.42,0,0,1,.32-.13h1.25a.46.46,0,0,1,.33.13.45.45,0,0,1,.15.33V345h8v-6.78a.47.47,0,0,1,.14-.33.46.46,0,0,1,.32-.13h1.25a.47.47,0,0,1,.47.46v16.45A.46.46,0,0,1,291.21,355Z" transform="translate(-137.01 -276.78)"/><path class="cls-2" d="M304.51,355.09a.37.37,0,0,1-.18.11,5.37,5.37,0,0,0-.89.06h-3.67a5.87,5.87,0,0,1-3.75-1,4.13,4.13,0,0,1-1.26-3.35v-9a4.12,4.12,0,0,1,1.26-3.34,5.87,5.87,0,0,1,3.75-1h3.69l.94.07a.22.22,0,0,1,.17.11.39.39,0,0,1,.06.21v1.18c0,.18-.08.27-.26.27h-4.51a6.77,6.77,0,0,0-1.49.13,1.81,1.81,0,0,0-.88.42,1.44,1.44,0,0,0-.4.76,4.68,4.68,0,0,0-.11,1.12v3.25h7.18a.51.51,0,0,1,.34.14.46.46,0,0,1,.13.32v.88a.46.46,0,0,1-.47.46H297v3.95a4.8,4.8,0,0,0,.11,1.14,1.48,1.48,0,0,0,.4.75,1.82,1.82,0,0,0,.88.43,7.43,7.43,0,0,0,1.49.12h4.51c.18,0,.26.09.26.28v1.25A.45.45,0,0,1,304.51,355.09Z" transform="translate(-137.01 -276.78)"/><path class="cls-2" d="M275.61,368.16a5.66,5.66,0,0,1-.51,2.5,4,4,0,0,1-1.36,1.61,5.45,5.45,0,0,1-2.07.89,12.15,12.15,0,0,1-2.62.28H267.8a4.19,4.19,0,0,1-1.12-.09v6.58a.47.47,0,0,1-.12.32.41.41,0,0,1-.31.14H265a.37.37,0,0,1-.3-.14.52.52,0,0,1-.11-.32V363.67a.53.53,0,0,1,.5-.57h.05c.5-.06,1.1-.11,1.81-.15H269a12.21,12.21,0,0,1,2.7.09,6.4,6.4,0,0,1,2.07.86,4.08,4.08,0,0,1,1.3,1.64,5.25,5.25,0,0,1,.51,2.37Zm-2.14-.33a2.85,2.85,0,0,0-1.08-2.5,5.88,5.88,0,0,0-3.34-.73H267.8l-1.11.07v6.83H269a5.42,5.42,0,0,0,3.41-.83,3.19,3.19,0,0,0,1-2.62Z" transform="translate(-137.01 -276.78)"/><path class="cls-2" d="M289.1,379.94a.35.35,0,0,1-.4.38h-1.39a.39.39,0,0,1-.25-.1.77.77,0,0,1-.14-.25l-1.52-5.38h-6.06l-1.5,5.38a.56.56,0,0,1-.16.25.4.4,0,0,1-.26.1H276a.35.35,0,0,1-.4-.38.43.43,0,0,1,0-.16L280,364.56a2.22,2.22,0,0,1,.41-.88,2.35,2.35,0,0,1,.59-.54,2.5,2.5,0,0,1,.7-.28,3.25,3.25,0,0,1,.69-.08c.23,0,.45,0,.67.06a2.13,2.13,0,0,1,.68.28,2.06,2.06,0,0,1,.6.54,2.57,2.57,0,0,1,.41.87l4.33,15.25A.43.43,0,0,1,289.1,379.94Zm-6.25-14.89c-.08-.28-.23-.43-.44-.43a.53.53,0,0,0-.48.43l-2.12,7.69H285Z" transform="translate(-137.01 -276.78)"/><path class="cls-2" d="M303.25,380c0,.2-.1.3-.32.3h-1.82a.61.61,0,0,1-.28-.27l-4.19-7h-1.71l-1.46-.06v6.87a.5.5,0,0,1-.12.33.41.41,0,0,1-.31.14h-1.25a.37.37,0,0,1-.3-.14.55.55,0,0,1-.11-.33V363.48a.44.44,0,0,1,.11-.36.74.74,0,0,1,.45-.15l.87-.09,1.06-.06h2.18a11.76,11.76,0,0,1,2.58.25,5.63,5.63,0,0,1,2.09.85,4.17,4.17,0,0,1,1.38,1.54,5.16,5.16,0,0,1,.5,2.39V368a5.89,5.89,0,0,1-.27,1.77,4.19,4.19,0,0,1-.76,1.37,4.55,4.55,0,0,1-1.16,1,5.78,5.78,0,0,1-1.48.61l4.25,7.11A.35.35,0,0,1,303.25,380Zm-2.76-12.2a2.62,2.62,0,0,0-1.12-2.5,6.46,6.46,0,0,0-3.32-.67h-2a2.44,2.44,0,0,0-.54,0v6.42h2.57a10.19,10.19,0,0,0,1.91-.16,3.46,3.46,0,0,0,1.38-.52,2.47,2.47,0,0,0,.87-1,3.93,3.93,0,0,0,.28-1.36Z" transform="translate(-137.01 -276.78)"/><path class="cls-2" d="M315.5,364.75h-4.56v15.1a.55.55,0,0,1-.11.33.41.41,0,0,1-.31.14h-1.25a.41.41,0,0,1-.3-.14.5.5,0,0,1-.12-.33v-15.1h-4.6a.75.75,0,0,1-.33-.1.35.35,0,0,1-.14-.28v-1a.37.37,0,0,1,.14-.3.5.5,0,0,1,.33-.12H315.5c.3,0,.44.14.44.42v1A.41.41,0,0,1,315.5,364.75Z" transform="translate(-137.01 -276.78)"/><path class="cls-2" d="M330.34,380.12a.67.67,0,0,1-.48.2h-1.43a.75.75,0,0,1-.75-.38l-7.22-13.76a.07.07,0,0,0-.08-.07c-.07,0,0,0,0,.07v13.66a.39.39,0,0,1-.12.31.36.36,0,0,1-.3.13H318.7a.81.81,0,0,1-.31,0c-.07,0-.11-.08-.11-.23V363.59a.59.59,0,0,1,.2-.46.7.7,0,0,1,.47-.19h1.26a1.61,1.61,0,0,1,.65.1,1.12,1.12,0,0,1,.31.37l7.18,13.65V363.38a.45.45,0,0,1,.11-.31.39.39,0,0,1,.3-.13H330a.38.38,0,0,1,.3.13.41.41,0,0,1,.11.31v16.26A.62.62,0,0,1,330.34,380.12Z" transform="translate(-137.01 -276.78)"/><path class="cls-2" d="M343.69,380.24a.23.23,0,0,1-.17.13,5.25,5.25,0,0,0-.89.06H339a5.88,5.88,0,0,1-3.75-1,4.08,4.08,0,0,1-1.25-3.35v-9a4.06,4.06,0,0,1,1.25-3.34,5.88,5.88,0,0,1,3.75-1h3.63l.94.06a.21.21,0,0,1,.17.12.37.37,0,0,1,0,.21v1.18a.23.23,0,0,1-.19.27h-4.58a6.81,6.81,0,0,0-1.5.13,1.91,1.91,0,0,0-.87.42,1.49,1.49,0,0,0-.41.76A6,6,0,0,0,336,367v3.25h7.18a.43.43,0,0,1,.32.14.41.41,0,0,1,.15.32v.88a.41.41,0,0,1-.15.32.43.43,0,0,1-.32.14H336V376a6.27,6.27,0,0,0,.1,1.14,1.68,1.68,0,0,0,.41.75,2,2,0,0,0,.87.43,7.47,7.47,0,0,0,1.5.12h4.51c.18,0,.26.09.26.28V380A.32.32,0,0,1,343.69,380.24Z" transform="translate(-137.01 -276.78)"/><path class="cls-2" d="M358.5,380a.27.27,0,0,1-.22.3h-1.85a.59.59,0,0,1-.27-.27l-4.25-7H350.2l-1.47-.06v6.87a.45.45,0,0,1-.12.33.39.39,0,0,1-.3.14h-1.25a.37.37,0,0,1-.3-.14.44.44,0,0,1-.11-.33V363.48a.44.44,0,0,1,.11-.36.75.75,0,0,1,.44-.15c.25,0,.55-.06.88-.09l1.05-.06h2.19a11.76,11.76,0,0,1,2.58.25,6.14,6.14,0,0,1,2.09.85,4.14,4.14,0,0,1,1.37,1.54,5,5,0,0,1,.5,2.39V368a5.58,5.58,0,0,1-.26,1.77,4.49,4.49,0,0,1-.76,1.37,4.12,4.12,0,0,1-1.18,1,5.51,5.51,0,0,1-1.46.61l4.25,7.11A.25.25,0,0,1,358.5,380Zm-2.75-12.2a2.63,2.63,0,0,0-1.13-2.5,6.51,6.51,0,0,0-3.31-.67h-2a2.44,2.44,0,0,0-.54,0v6.42h2.58a10.09,10.09,0,0,0,1.9-.16,3.77,3.77,0,0,0,1.39-.52,2.44,2.44,0,0,0,.86-1,3.73,3.73,0,0,0,.29-1.58Z" transform="translate(-137.01 -276.78)"/><path class="cls-2" d="M363.25,380.18a.37.37,0,0,1-.3.14H361.7a.41.41,0,0,1-.3-.14.55.55,0,0,1-.12-.33V363.38a.45.45,0,0,1,.12-.31.39.39,0,0,1,.3-.13H363a.37.37,0,0,1,.3.13.46.46,0,0,1,.13.31v16.47A.51.51,0,0,1,363.25,380.18Z" transform="translate(-137.01 -276.78)"/><path class="cls-2" d="M379.05,380.12a.63.63,0,0,1-.46.2h-1.44a.75.75,0,0,1-.75-.38l-7.23-13.76s0-.07-.06-.07,0,0,0,.07v13.66a.4.4,0,0,1-.13.31.34.34,0,0,1-.3.13h-1.25a.76.76,0,0,1-.3,0c-.09,0-.12-.1-.12-.23V363.59a.63.63,0,0,1,.2-.46.7.7,0,0,1,.47-.19h1.25a1.68,1.68,0,0,1,.67.1,1.09,1.09,0,0,1,.3.37l7.18,13.65V363.38a.41.41,0,0,1,.11-.31.37.37,0,0,1,.3-.13h1.25a.39.39,0,0,1,.3.13.51.51,0,0,1,.11.31v16.26A.63.63,0,0,1,379.05,380.12Z" transform="translate(-137.01 -276.78)"/><path class="cls-2" d="M392.93,380.13c-.57.09-1.25.17-1.92.25s-1.62.1-2.73.1a6.28,6.28,0,0,1-2.19-.39,5.07,5.07,0,0,1-1.94-1.25,6.19,6.19,0,0,1-1.38-2.24,9.36,9.36,0,0,1-.54-3.4v-3.14a9.44,9.44,0,0,1,.56-3.53,6.22,6.22,0,0,1,1.5-2.25,5.06,5.06,0,0,1,2-1.17,7.82,7.82,0,0,1,2.25-.34,21.38,21.38,0,0,1,2.71.1l1.73.22a1.4,1.4,0,0,1,.29.09.27.27,0,0,1,.11.26v1.17q0,.24-.3.24H393l-1-.08h-3.46A4.9,4.9,0,0,0,387,365a3.26,3.26,0,0,0-1.33.86,4.39,4.39,0,0,0-.91,1.65,8.87,8.87,0,0,0-.34,2.61v3.14a8.83,8.83,0,0,0,.3,2.5,4.72,4.72,0,0,0,.85,1.67,3.1,3.1,0,0,0,1.26.95,4,4,0,0,0,1.52.29h1.8l1.15-.09v-6.81a.5.5,0,0,1,.12-.33.37.37,0,0,1,.3-.14H393a.43.43,0,0,1,.32.14.46.46,0,0,1,.13.33v7.86A.48.48,0,0,1,392.93,380.13Z" transform="translate(-137.01 -276.78)"/><path class="cls-2" d="M266.56,405.38a.41.41,0,0,1-.31.14H265a.37.37,0,0,1-.3-.14.43.43,0,0,1-.11-.32V388.59a.42.42,0,0,1,.11-.32.36.36,0,0,1,.3-.12h1.25a.39.39,0,0,1,.31.12.42.42,0,0,1,.11.32v16.47A.48.48,0,0,1,266.56,405.38Z" transform="translate(-137.01 -276.78)"/><path class="cls-2" d="M282.36,405.32a.67.67,0,0,1-.48.2h-1.44a.76.76,0,0,1-.75-.38l-7.21-13.75a.08.08,0,0,0-.08-.08c-.07,0,0,0,0,.08v13.67a.51.51,0,0,1-.11.31.39.39,0,0,1-.3.12h-1.25a.51.51,0,0,1-.3,0c-.08,0-.11-.07-.11-.22V388.8a.57.57,0,0,1,.2-.47.62.62,0,0,1,.47-.18h1.25a1.21,1.21,0,0,1,.65.1.81.81,0,0,1,.3.36l7.24,13.66V388.59a.47.47,0,0,1,.12-.32.41.41,0,0,1,.3-.12h1.25a.39.39,0,0,1,.3.12.41.41,0,0,1,.12.32v16.25A.65.65,0,0,1,282.36,405.32Z" transform="translate(-137.01 -276.78)"/><path class="cls-2" d="M288.24,405.38a.41.41,0,0,1-.3.14h-1.25a.41.41,0,0,1-.31-.14.47.47,0,0,1-.12-.32V388.59a.45.45,0,0,1,.12-.32.39.39,0,0,1,.31-.12h1.25a.39.39,0,0,1,.3.12.52.52,0,0,1,.11.32v16.47A.54.54,0,0,1,288.24,405.38Z" transform="translate(-137.01 -276.78)"/><path class="cls-2" d="M302.72,390h-4.57v15.11a.43.43,0,0,1-.11.32.41.41,0,0,1-.31.14h-1.25a.4.4,0,0,1-.31-.14.49.49,0,0,1-.12-.32V390h-4.56a.64.64,0,0,1-.33-.1.29.29,0,0,1-.13-.28v-1a.34.34,0,0,1,.13-.3.55.55,0,0,1,.33-.11h11.25c.29,0,.44.13.44.41v1A.42.42,0,0,1,302.72,390Z" transform="translate(-137.01 -276.78)"/><path class="cls-2" d="M307.81,405.38a.37.37,0,0,1-.3.14h-1.25a.37.37,0,0,1-.3-.14.48.48,0,0,1-.13-.32V388.59a.42.42,0,0,1,.13-.32.36.36,0,0,1,.3-.12h1.25a.39.39,0,0,1,.3.12.41.41,0,0,1,.12.32v16.47A.43.43,0,0,1,307.81,405.38Z" transform="translate(-137.01 -276.78)"/><path class="cls-2" d="M323.88,405.14a.35.35,0,0,1-.4.38h-1.37a.38.38,0,0,1-.27-.1,1,1,0,0,1-.14-.25l-1.51-5.38h-6.06l-1.51,5.38a.42.42,0,0,1-.16.25.39.39,0,0,1-.25.1h-1.37c-.28,0-.4-.13-.4-.38a.22.22,0,0,1,0-.16l4.32-15.22a2.3,2.3,0,0,1,.4-.87,2.2,2.2,0,0,1,.6-.54,2.6,2.6,0,0,1,.69-.29,4.06,4.06,0,0,1,.69-.08h.68a2.21,2.21,0,0,1,1.25.82,2.12,2.12,0,0,1,.41.87l4.33,15.25A.44.44,0,0,1,323.88,405.14Zm-6.25-14.89c-.08-.28-.23-.43-.45-.43s-.39.15-.47.43l-2.12,7.69h5.16Z" transform="translate(-137.01 -276.78)"/><path class="cls-2" d="M334.76,390H330.2v15.11a.49.49,0,0,1-.12.32.41.41,0,0,1-.31.14h-1.25a.39.39,0,0,1-.3-.14.54.54,0,0,1-.11-.32V390h-4.57a.6.6,0,0,1-.32-.1.29.29,0,0,1-.14-.28v-1a.35.35,0,0,1,.14-.3.43.43,0,0,1,.32-.11H334.8c.29,0,.44.13.44.41v1A.42.42,0,0,1,334.76,390Z" transform="translate(-137.01 -276.78)"/><path class="cls-2" d="M339.85,405.38a.37.37,0,0,1-.3.14H338.3a.41.41,0,0,1-.3-.14.47.47,0,0,1-.12-.32V388.59a.47.47,0,0,1,.12-.32.39.39,0,0,1,.3-.12h1.25a.36.36,0,0,1,.3.12.48.48,0,0,1,.13.32v16.47A.54.54,0,0,1,339.85,405.38Z" transform="translate(-137.01 -276.78)"/><path class="cls-2" d="M356,388.55a.33.33,0,0,1,0,.14l-4.31,15.22a2.56,2.56,0,0,1-.42.9,2.14,2.14,0,0,1-.59.53,1.8,1.8,0,0,1-.67.28,4,4,0,0,1-.69,0,4,4,0,0,1-.69,0,2.13,2.13,0,0,1-.68-.28,2.51,2.51,0,0,1-.6-.53,2.74,2.74,0,0,1-.42-.9l-4.33-15.22a.33.33,0,0,1,0-.14.46.46,0,0,1,.11-.3.46.46,0,0,1,.32-.1h1.35a.32.32,0,0,1,.26.1.6.6,0,0,1,.16.25l4.07,14.89c.1.33.25.49.47.49s.35-.16.44-.49l4.09-14.89a1,1,0,0,1,.15-.25.31.31,0,0,1,.25-.1h1.39C355.91,388.15,356,388.27,356,388.55Z" transform="translate(-137.01 -276.78)"/><path class="cls-2" d="M367.53,405.46a.25.25,0,0,1-.17.11,5.25,5.25,0,0,0-.89.06H362.8a5.88,5.88,0,0,1-3.75-1,4.08,4.08,0,0,1-1.25-3.35v-9a4.08,4.08,0,0,1,1.25-3.35,5.89,5.89,0,0,1,3.75-1h4.56a.23.23,0,0,1,.17.12.37.37,0,0,1,.06.21v1.18c0,.18-.08.27-.26.27h-4.5a7.54,7.54,0,0,0-1.5.13,1.73,1.73,0,0,0-.87.42,1.49,1.49,0,0,0-.41.76,4.76,4.76,0,0,0-.11,1.13v3.24h7.19a.47.47,0,0,1,.46.46v.89a.44.44,0,0,1-.13.31.47.47,0,0,1-.33.14h-7.19v4.11a4.8,4.8,0,0,0,.11,1.14,1.5,1.5,0,0,0,.41.75,1.93,1.93,0,0,0,.87.43,7.53,7.53,0,0,0,1.5.12h4.5c.18,0,.26.09.26.28v1.25A.33.33,0,0,1,367.53,405.46Z" transform="translate(-137.01 -276.78)"/></svg>